<svg width="430" height="932" viewBox="0 0 430 932" fill="none" xmlns="http://www.w3.org/2000/svg">
<g clip-path="url(#clip0_2_901)">
<rect width="430" height="932" fill="#90FAFE"/>
<g clip-path="url(#clip1_2_901)" filter="url(#filter0_f_2_901)">
<path d="M424.57 81.0961L329.747 63.6236C329.38 63.5559 329.146 63.2074 329.211 62.8513L342.415 -8.80217C342.48 -9.15831 342.823 -9.40046 343.191 -9.33277L438.013 8.1397C438.38 8.20739 438.615 8.55591 438.549 8.91205L425.346 80.5655C425.28 80.9216 424.937 81.1638 424.57 81.0961ZM330.644 62.4415L424.145 79.6706L437.107 9.32884L343.605 -7.90025L330.644 62.4415Z" fill="#9FC9C9"/>
<path d="M426.025 89.8337L325.273 71.2685C324.914 71.2024 324.671 70.8523 324.737 70.4961L326.246 62.3049C326.314 61.9401 326.664 61.7082 327.022 61.7743L427.775 80.3395C428.142 80.4072 428.377 80.7557 428.311 81.1119L426.802 89.3031C426.736 89.6592 426.384 89.8997 426.025 89.8337ZM326.179 70.0793L425.611 88.4012L426.879 81.5216L327.447 63.1998L326.179 70.0793Z" fill="#9FC9C9"/>
<path d="M373.037 94.754C370.404 94.2688 368.644 91.7442 369.128 89.121C369.61 86.5064 372.146 84.7644 374.788 85.2511C377.42 85.7363 379.18 88.2609 378.697 90.8842C378.204 93.5058 375.669 95.2391 373.037 94.754ZM374.546 86.5628C372.639 86.2114 370.797 87.4707 370.449 89.3643C370.1 91.2579 371.372 93.091 373.278 93.4423C375.185 93.7937 377.027 92.5344 377.376 90.6408C377.725 88.7472 376.453 86.9141 374.546 86.5628Z" fill="#9FC9C9"/>
<path d="M374.581 86.3717C374.214 86.304 373.98 85.9555 374.047 85.5906L375.102 80.0102C375.169 79.6454 375.512 79.3582 375.887 79.4812C376.254 79.5489 376.489 79.8974 376.421 80.2622L375.375 85.8443C375.29 86.2059 374.94 86.4378 374.581 86.3717Z" fill="#9FC9C9"/>
<path d="M355.39 61.2983L341.482 58.7357C341.115 58.668 340.881 58.3195 340.946 57.9633L347.192 24.0693C347.259 23.7045 347.609 23.4726 347.968 23.5387L361.875 26.1013C362.243 26.169 362.477 26.5175 362.411 26.8737L356.166 60.7677C356.1 61.1238 355.748 61.3644 355.39 61.2983ZM342.38 57.5449L354.967 59.8642L360.97 27.2818L348.384 24.9625L342.38 57.5449Z" fill="#9FC9C9"/>
<path d="M382.845 66.3574L368.938 63.7948C368.571 63.7271 368.336 63.3786 368.402 63.0225L377.154 15.5257C377.221 15.1609 377.572 14.929 377.93 14.9951L391.837 17.5577C392.205 17.6254 392.439 17.9739 392.373 18.33L383.623 65.8181C383.556 66.183 383.204 66.4235 382.845 66.3574ZM369.836 62.604L382.422 64.9233L390.931 18.7468L378.344 16.4276L369.836 62.604Z" fill="#9FC9C9"/>
<path d="M411.91 71.7131L398.003 69.1505C397.636 69.0828 397.402 68.7343 397.467 68.3781L408.031 11.0484C408.098 10.6836 408.449 10.4518 408.807 10.5179L422.714 13.0805C423.082 13.1481 423.316 13.4967 423.25 13.8528L412.688 71.1738C412.621 71.5386 412.278 71.7808 411.91 71.7131ZM398.91 67.9613L411.496 70.2806L421.817 14.2712L409.23 11.952L398.91 67.9613Z" fill="#9FC9C9"/>
</g>
<g opacity="0.2">
<g clip-path="url(#clip2_2_901)">
<path d="M330.727 809.83C286.785 841.477 250.159 891.362 196.174 896.088C169.52 898.413 143.467 888.821 117.038 884.632C90.6094 880.442 59.7585 883.39 43.1479 904.334C22.0578 930.951 37.2062 973.282 65.5618 991.998C93.9174 1010.71 130.122 1011.88 164.085 1010.87C292.193 1007.07 421.234 980.091 533.75 918.795C556.371 906.459 579.395 891.583 590.735 868.465C620.129 808.451 541.833 780.349 497.128 772.826C439.731 763.164 378.182 775.665 330.727 809.83Z" fill="#00BDE7"/>
</g>
<g style="mix-blend-mode:soft-light" clip-path="url(#clip3_2_901)">
<path d="M77.0278 928.725C103.639 894.799 151.625 887.943 194.666 886.26C237.732 884.597 284.477 884.324 318.385 857.743C342.117 839.131 355.868 810.094 379.418 791.217C414.877 762.821 470.986 764.643 504.537 795.274C538.115 825.945 545.084 881.685 520.103 919.64C500.893 948.821 467.697 965.239 435.245 978.089C372.567 1002.93 306.586 1019.32 239.619 1027.01C205.843 1030.89 171.842 1032.53 137.853 1031.92C114.769 1031.49 73.4575 1037.13 62.0427 1014.56C49.5344 989.844 60.5467 949.734 77.0278 928.725Z" fill="url(#paint0_linear_2_901)"/>
</g>
</g>
<g style="mix-blend-mode:hard-light" opacity="0.1" clip-path="url(#clip4_2_901)" filter="url(#filter1_f_2_901)">
<path d="M330.005 727.301H329.876C327.889 727.301 325.894 727.277 323.948 727.236L323.964 726.325C325.91 726.365 327.897 726.389 329.876 726.389H330.005V727.301ZM336.07 727.236L336.045 726.325C338.064 726.276 340.091 726.212 342.07 726.131L342.11 727.043C340.124 727.123 338.089 727.188 336.07 727.236ZM317.891 727.051C315.88 726.962 313.837 726.857 311.842 726.728L311.899 725.817C313.894 725.946 315.921 726.051 317.931 726.139L317.891 727.051ZM348.167 726.712L348.111 725.8C350.105 725.671 352.132 725.518 354.135 725.341L354.216 726.244C352.197 726.43 350.162 726.583 348.167 726.712ZM305.794 726.276C303.799 726.107 301.764 725.905 299.761 725.696L299.858 724.792C301.853 725.01 303.88 725.203 305.874 725.373L305.794 726.276ZM360.24 725.663L360.144 724.76C362.138 724.542 364.157 724.3 366.144 724.042L366.265 724.945C364.27 725.204 362.243 725.445 360.24 725.663ZM293.736 724.978C291.742 724.719 289.723 724.437 287.736 724.131L287.873 723.227C289.852 723.526 291.863 723.808 293.858 724.066L293.736 724.978ZM372.257 724.09L372.12 723.187C374.098 722.88 376.101 722.558 378.08 722.211L378.241 723.106C376.255 723.461 374.244 723.792 372.257 724.09ZM281.76 723.155C279.79 722.808 277.779 722.437 275.8 722.049L275.978 721.154C277.956 721.541 279.951 721.912 281.922 722.259L281.76 723.155ZM384.201 722.001L384.024 721.106C385.994 720.718 387.981 720.299 389.935 719.863L390.129 720.751C388.175 721.194 386.172 721.606 384.201 722.001ZM269.865 720.815C267.886 720.38 265.899 719.92 263.961 719.452L264.179 718.565C266.109 719.032 268.088 719.492 270.066 719.928L269.865 720.815ZM396.032 719.387L395.814 718.5C397.777 718.016 399.747 717.516 401.669 717L401.903 717.879C399.981 718.403 398.003 718.903 396.032 719.387ZM258.082 717.951C256.128 717.427 254.157 716.887 252.243 716.33L252.494 715.459C254.407 716.016 256.362 716.556 258.316 717.08L258.082 717.951ZM407.742 716.258L407.484 715.386C409.43 714.814 411.376 714.225 413.266 713.636L413.54 714.507C411.651 715.096 409.696 715.685 407.742 716.258ZM246.445 714.572C244.515 713.967 242.568 713.329 240.663 712.684L240.953 711.821C242.859 712.466 244.797 713.095 246.719 713.7L246.445 714.572ZM419.307 712.611L419.016 711.748C420.93 711.103 422.844 710.425 424.717 709.748L425.032 710.603C423.143 711.288 421.221 711.966 419.307 712.611ZM234.921 710.675C233.007 709.982 231.093 709.264 229.227 708.538L229.558 707.691C231.416 708.409 233.322 709.127 235.228 709.82L234.921 710.675ZM430.693 708.473L430.362 707.626C432.228 706.9 434.11 706.142 435.943 705.384L436.29 706.222C434.449 706.981 432.567 707.739 430.693 708.473ZM223.59 706.271C221.725 705.496 219.843 704.698 218.002 703.883L218.373 703.052C220.215 703.859 222.088 704.666 223.946 705.432L223.59 706.271ZM441.846 703.843L441.475 703.012C443.3 702.205 445.141 701.374 446.958 700.527L447.346 701.35C445.529 702.197 443.679 703.036 441.846 703.843ZM212.462 701.382C210.637 700.527 208.787 699.648 206.987 698.753L207.39 697.938C209.191 698.825 211.024 699.705 212.85 700.56L212.462 701.382ZM452.797 698.737L452.393 697.922C454.194 697.035 456.003 696.115 457.763 695.195L458.183 696.002C456.415 696.93 454.598 697.849 452.797 698.737ZM201.568 696.002C199.783 695.074 197.982 694.114 196.213 693.138L196.65 692.34C198.418 693.308 200.211 694.268 201.988 695.195L201.568 696.002ZM463.513 693.154L463.077 692.356C464.838 691.388 466.606 690.396 468.327 689.395L468.779 690.186C467.051 691.186 465.282 692.186 463.513 693.154ZM190.924 690.162C189.171 689.145 187.411 688.105 185.699 687.064L186.175 686.29C187.879 687.322 189.632 688.363 191.376 689.371L190.924 690.162ZM473.988 687.104L473.511 686.33C475.215 685.297 476.935 684.225 478.631 683.144L479.124 683.91C477.42 684.991 475.692 686.064 473.988 687.104ZM180.555 683.861C178.867 682.781 177.155 681.667 175.475 680.546L175.984 679.788C177.655 680.909 179.359 682.022 181.047 683.095L180.555 683.861ZM484.187 680.611L483.679 679.852C485.35 678.731 487.03 677.586 488.653 676.448L489.178 677.19C487.547 678.336 485.867 679.481 484.187 680.611ZM170.468 677.118C168.804 675.948 167.149 674.762 165.542 673.584L166.083 672.85C167.682 674.028 169.337 675.214 170.993 676.376L170.468 677.118ZM494.096 673.665L493.555 672.931C495.162 671.753 496.785 670.535 498.384 669.309L498.942 670.027C497.335 671.261 495.711 672.487 494.096 673.665ZM160.688 669.938C159.097 668.712 157.49 667.454 155.924 666.195L156.497 665.486C158.064 666.744 159.663 667.994 161.254 669.22L160.688 669.938ZM503.698 666.3L503.125 665.59C504.7 664.332 506.266 663.041 507.793 661.767L508.374 662.46C506.856 663.743 505.281 665.034 503.698 666.3ZM151.24 662.348C149.697 661.057 148.155 659.726 146.636 658.403L147.234 657.717C148.744 659.04 150.287 660.363 151.821 661.654L151.24 662.348ZM512.977 658.524L512.38 657.838C513.89 656.515 515.408 655.16 516.878 653.813L517.492 654.482C516.014 655.838 514.496 657.193 512.977 658.524ZM142.122 654.362C140.628 652.998 139.142 651.603 137.696 650.223L138.326 649.57C139.764 650.949 141.25 652.337 142.736 653.7L142.122 654.362ZM521.917 650.352L521.287 649.699C522.741 648.311 524.195 646.892 525.608 645.48L526.254 646.125C524.825 647.537 523.371 648.957 521.917 650.352ZM133.376 645.988C131.947 644.56 130.525 643.108 129.136 641.664L129.798 641.035C131.179 642.479 132.601 643.923 134.022 645.351L133.376 645.988ZM530.486 641.794L529.832 641.164C531.212 639.728 532.602 638.244 533.966 636.76L534.637 637.373C533.272 638.865 531.875 640.35 530.486 641.794ZM124.993 637.244C123.62 635.752 122.264 634.235 120.947 632.743L121.634 632.146C122.942 633.638 124.299 635.147 125.664 636.639L124.993 637.244ZM538.683 632.872L537.996 632.275C539.329 630.758 540.653 629.217 541.937 627.693L542.632 628.282C541.356 629.806 540.023 631.355 538.683 632.872ZM116.998 628.145C115.706 626.612 114.414 625.039 113.154 623.474L113.865 622.901C115.125 624.466 116.417 626.031 117.693 627.564L116.998 628.145ZM546.492 623.603L545.781 623.03C547.033 621.482 548.285 619.884 549.52 618.287L550.239 618.844C549.003 620.449 547.744 622.046 546.492 623.603ZM109.415 618.723C108.188 617.125 106.96 615.496 105.781 613.891L106.516 613.35C107.695 614.956 108.914 616.577 110.142 618.166L109.415 618.723ZM553.889 613.996L553.154 613.455C554.35 611.834 555.537 610.18 556.683 608.551L557.426 609.075C556.28 610.721 555.084 612.374 553.889 613.996ZM102.252 608.97C101.089 607.316 99.9423 605.638 98.8278 603.985L99.5869 603.477C100.693 605.13 101.84 606.8 102.995 608.446L102.252 608.97ZM560.859 604.082L560.1 603.573C561.214 601.912 562.328 600.21 563.411 598.516L564.178 599.008C563.104 600.702 561.981 602.412 560.859 604.082ZM95.5168 598.927C94.4346 597.233 93.3605 595.507 92.3187 593.797L93.094 593.321C94.1277 595.023 95.2018 596.741 96.284 598.435L95.5168 598.927ZM567.4 593.861L566.625 593.385C567.667 591.675 568.708 589.933 569.718 588.19L570.509 588.642C569.484 590.4 568.442 592.151 567.4 593.861ZM89.2257 588.602C88.2163 586.851 87.2149 585.084 86.2539 583.342L87.0533 582.906C88.0063 584.641 89.0077 586.407 90.0171 588.15L89.2257 588.602ZM573.481 583.366L572.682 582.931C573.651 581.172 574.612 579.381 575.54 577.598L576.348 578.018C575.419 579.809 574.458 581.608 573.481 583.366ZM83.4031 578.026C82.4744 576.243 81.5538 574.436 80.6654 572.646L81.4811 572.242C82.3694 574.025 83.282 575.832 84.2107 577.607L83.4031 578.026ZM579.11 572.613L578.294 572.21C579.183 570.419 580.063 568.588 580.919 566.757L581.743 567.144C580.878 568.975 579.998 570.814 579.11 572.613ZM78.0408 567.2C77.1848 565.377 76.3449 563.53 75.5373 561.707L76.3691 561.344C77.1686 563.159 78.0085 565.006 78.8564 566.821L78.0408 567.2ZM584.254 561.618L583.422 561.247C584.238 559.4 585.037 557.528 585.805 555.681L586.645 556.028C585.869 557.883 585.07 559.763 584.254 561.618ZM73.163 556.165C72.3958 554.31 71.6367 552.43 70.9099 550.567L71.7578 550.236C72.4847 552.092 73.2357 553.963 74.0029 555.81L73.163 556.165ZM588.914 550.398L588.066 550.067C588.801 548.187 589.52 546.283 590.198 544.404L591.054 544.718C590.367 546.598 589.649 548.51 588.914 550.398ZM68.7698 544.904C68.0753 543.008 67.3969 541.088 66.7509 539.193L67.615 538.902C68.261 540.79 68.9313 542.71 69.6258 544.598L68.7698 544.904ZM593.073 538.983L592.209 538.693C592.855 536.789 593.485 534.853 594.09 532.933L594.963 533.207C594.357 535.135 593.719 537.079 593.073 538.983ZM64.8611 533.441C64.2555 531.521 63.6659 529.577 63.1006 527.649L63.9728 527.391C64.53 529.311 65.1276 531.255 65.7253 533.167L64.8611 533.441ZM596.723 527.407L595.851 527.157C596.408 525.237 596.957 523.277 597.474 521.341L598.354 521.575C597.83 523.519 597.28 525.479 596.723 527.407ZM61.4693 521.817C60.9444 519.873 60.4437 517.897 59.9672 515.953L60.8556 515.735C61.332 517.671 61.8327 519.639 62.3576 521.583L61.4693 521.817ZM599.848 515.711L598.96 515.493C599.437 513.557 599.897 511.572 600.325 509.612L601.213 509.806C600.785 511.782 600.325 513.766 599.848 515.711ZM58.5863 510.056C58.1502 508.088 57.7302 506.095 57.3426 504.127L58.239 503.949C58.6266 505.909 59.0466 507.894 59.4827 509.854L58.5863 510.056ZM602.465 503.893L601.569 503.715C601.956 501.755 602.328 499.755 602.675 497.786L603.571 497.948C603.224 499.916 602.853 501.916 602.465 503.893ZM56.2201 498.182C55.8728 496.197 55.5417 494.189 55.2348 492.204L56.1393 492.067C56.4462 494.043 56.7692 496.044 57.1246 498.02L56.2201 498.182ZM604.549 491.962L603.644 491.825C603.951 489.833 604.234 487.824 604.492 485.848L605.397 485.969C605.138 487.953 604.855 489.97 604.549 491.962ZM54.3869 486.211C54.1204 484.21 53.8781 482.185 53.6601 480.201L54.5645 480.104C54.7826 482.088 55.0249 484.097 55.2833 486.098L54.3869 486.211ZM606.115 479.959L605.211 479.862C605.429 477.886 605.623 475.861 605.792 473.852L606.697 473.933C606.527 475.942 606.333 477.966 606.115 479.959ZM53.0705 474.175C52.8928 472.174 52.7394 470.15 52.6102 468.141L53.5228 468.085C53.652 470.085 53.8054 472.11 53.9831 474.102L53.0705 474.175ZM607.165 467.891L606.253 467.835C606.382 465.826 606.487 463.793 606.576 461.809L607.488 461.849C607.399 463.842 607.294 465.874 607.165 467.891ZM52.2791 462.091C52.1903 460.082 52.1257 458.05 52.0772 456.057L52.9898 456.033C53.0301 458.025 53.1028 460.05 53.1917 462.051L52.2791 462.091ZM607.682 455.799L606.769 455.783C606.81 453.782 606.834 451.749 606.834 449.749V449.249H607.747V449.749C607.747 451.749 607.722 453.79 607.682 455.799ZM52.9171 450.007H52.0045V449.749C52.0045 447.813 52.0207 445.869 52.061 443.957L52.9736 443.973C52.9332 445.877 52.9171 447.821 52.9171 449.749V450.007ZM606.761 443.207C606.713 441.214 606.648 439.182 606.559 437.173L607.472 437.133C607.561 439.149 607.633 441.182 607.674 443.183L606.761 443.207ZM53.1674 437.939L52.2549 437.899C52.3356 435.898 52.4487 433.866 52.5698 431.849L53.4824 431.905C53.3532 433.914 53.2482 435.947 53.1674 437.939ZM606.22 431.147C606.091 429.147 605.93 427.122 605.752 425.129L606.656 425.049C606.834 427.049 606.987 429.074 607.125 431.083L606.22 431.147ZM53.9346 425.896L53.0301 425.815C53.1997 423.822 53.3936 421.79 53.6116 419.789L54.5161 419.886C54.298 421.886 54.1042 423.903 53.9346 425.896ZM605.154 419.128C604.936 417.135 604.694 415.118 604.427 413.134L605.332 413.013C605.598 414.997 605.841 417.022 606.059 419.023L605.154 419.128ZM55.2187 413.892L54.3142 413.779C54.5726 411.787 54.8553 409.77 55.1541 407.786L56.0586 407.923C55.7598 409.899 55.4771 411.908 55.2187 413.892ZM603.571 407.165C603.264 405.188 602.933 403.18 602.586 401.211L603.483 401.05C603.83 403.026 604.169 405.035 604.476 407.028L603.571 407.165ZM57.0357 401.962L56.1393 401.808C56.4866 399.832 56.8581 397.831 57.2457 395.855L58.1421 396.033C57.7464 398.001 57.3749 399.993 57.0357 401.962ZM601.472 395.282C601.084 393.33 600.664 391.346 600.228 389.378L601.116 389.184C601.552 391.16 601.98 393.153 602.368 395.105L601.472 395.282ZM59.3696 390.12L58.4813 389.926C58.9093 387.958 59.3696 385.973 59.8461 384.029L60.7344 384.247C60.2579 386.183 59.7976 388.159 59.3696 390.12ZM598.847 383.505C598.371 381.561 597.862 379.593 597.345 377.657L598.225 377.423C598.75 379.359 599.259 381.335 599.735 383.287L598.847 383.505ZM62.2204 378.391L61.3401 378.157C61.857 376.213 62.4061 374.252 62.9633 372.324L63.8355 372.575C63.2783 374.502 62.7291 376.455 62.2204 378.391ZM595.706 371.849C595.14 369.929 594.551 367.985 593.945 366.073L594.817 365.798C595.423 367.718 596.021 369.662 596.586 371.59L595.706 371.849ZM65.5799 366.799L64.7077 366.524C65.3134 364.605 65.9433 362.661 66.5974 360.749L67.4615 361.039C66.8155 362.951 66.1856 364.887 65.5799 366.799ZM592.055 360.345C591.409 358.45 590.731 356.538 590.044 354.658L590.9 354.344C591.595 356.231 592.273 358.151 592.919 360.055L592.055 360.345ZM69.4643 355.328L68.6083 355.021C69.2947 353.142 70.0135 351.222 70.7484 349.334L71.5963 349.665C70.8614 351.545 70.1508 353.448 69.4643 355.328ZM587.904 349.012C587.178 347.156 586.418 345.277 585.651 343.438L586.491 343.091C587.258 344.938 588.026 346.817 588.752 348.681L587.904 349.012ZM73.8495 344.043L73.0096 343.696C73.7768 341.848 74.5763 339.969 75.3919 338.113L76.2237 338.476C75.4162 340.324 74.6167 342.203 73.8495 344.043ZM583.269 337.912C582.461 336.089 581.621 334.25 580.773 332.435L581.597 332.047C582.453 333.862 583.293 335.71 584.101 337.541L583.269 337.912ZM78.7272 332.967L77.9035 332.58C78.7595 330.757 79.6398 328.909 80.5281 327.11L81.3438 327.514C80.4635 329.313 79.5752 331.144 78.7272 332.967ZM578.157 327.022C577.269 325.239 576.348 323.432 575.419 321.657L576.227 321.238C577.156 323.013 578.084 324.828 578.973 326.618L578.157 327.022ZM84.0895 322.117L83.282 321.698C84.2107 319.915 85.1798 318.108 86.1489 316.349L86.9484 316.785C85.9793 318.544 85.0183 320.334 84.0895 322.117ZM572.577 316.358C571.616 314.615 570.614 312.857 569.613 311.114L570.404 310.654C571.414 312.397 572.415 314.163 573.384 315.914L572.577 316.358ZM89.9122 311.518L89.1208 311.066C90.1302 309.323 91.172 307.565 92.2138 305.847L92.989 306.323C91.9553 308.033 90.9136 309.783 89.9122 311.518ZM566.528 305.943C565.486 304.241 564.412 302.523 563.33 300.837L564.097 300.345C565.179 302.039 566.261 303.765 567.303 305.467L566.528 305.943ZM96.1951 301.184L95.4279 300.692C96.5101 298.998 97.6245 297.296 98.7471 295.618L99.5062 296.126C98.3836 297.804 97.2692 299.498 96.1951 301.184ZM560.027 295.795C558.912 294.142 557.766 292.464 556.611 290.826L557.354 290.302C558.509 291.948 559.663 293.625 560.778 295.287L560.027 295.795ZM102.922 291.141L102.179 290.617C103.318 288.987 104.513 287.333 105.716 285.688L106.451 286.228C105.24 287.874 104.061 289.52 102.922 291.141ZM553.082 285.938C551.895 284.333 550.675 282.711 549.456 281.122L550.174 280.565C551.402 282.155 552.629 283.784 553.817 285.397L553.082 285.938ZM110.077 281.404L109.359 280.848C110.578 279.259 111.838 277.661 113.106 276.08L113.816 276.653C112.549 278.226 111.289 279.823 110.077 281.404ZM545.725 276.379C544.473 274.822 543.181 273.257 541.889 271.724L542.583 271.135C543.883 272.676 545.175 274.249 546.435 275.806L545.725 276.379ZM117.644 271.991L116.95 271.41C118.25 269.861 119.574 268.32 120.899 266.812L121.585 267.409C120.261 268.909 118.936 270.45 117.644 271.991ZM537.948 267.159C536.615 265.642 535.258 264.134 533.91 262.673L534.58 262.06C535.929 263.529 537.294 265.045 538.626 266.562L537.948 267.159ZM125.615 262.915L124.945 262.302C126.302 260.826 127.691 259.342 129.088 257.882L129.75 258.511C128.353 259.963 126.964 261.447 125.615 262.915ZM529.783 258.269C528.402 256.833 526.981 255.381 525.551 253.961L526.197 253.316C527.627 254.744 529.056 256.196 530.437 257.64L529.783 258.269ZM133.965 254.195L133.319 253.55C134.741 252.13 136.194 250.702 137.648 249.315L138.278 249.968C136.832 251.356 135.379 252.776 133.965 254.195ZM521.231 249.742C519.793 248.371 518.307 246.984 516.821 245.62L517.435 244.951C518.929 246.322 520.423 247.71 521.861 249.089L521.231 249.742ZM142.687 245.846L142.074 245.177C143.551 243.822 145.07 242.458 146.58 241.135L147.177 241.821C145.675 243.144 144.165 244.499 142.687 245.846ZM512.315 241.595C510.813 240.28 509.271 238.957 507.728 237.667L508.31 236.965C509.86 238.264 511.411 239.586 512.913 240.909L512.315 241.595ZM151.756 237.884L151.167 237.191C152.693 235.908 154.268 234.617 155.843 233.351L156.416 234.061C154.849 235.319 153.275 236.61 151.756 237.884ZM503.052 233.835C501.486 232.585 499.887 231.326 498.296 230.108L498.853 229.39C500.452 230.616 502.059 231.875 503.626 233.133L503.052 233.835ZM161.165 230.334L160.607 229.616C162.206 228.382 163.838 227.164 165.445 225.986L165.986 226.72C164.387 227.882 162.764 229.108 161.165 230.334ZM493.466 226.486C491.859 225.308 490.204 224.123 488.548 222.969L489.073 222.227C490.729 223.388 492.392 224.574 494.007 225.76L493.466 226.486ZM170.888 223.195L170.363 222.453C172.002 221.299 173.682 220.154 175.354 219.032L175.863 219.791C174.199 220.896 172.527 222.041 170.888 223.195ZM483.557 219.557C481.886 218.444 480.182 217.33 478.494 216.258L478.987 215.491C480.682 216.572 482.394 217.685 484.066 218.807L483.557 219.557ZM180.902 216.483L180.409 215.717C182.113 214.628 183.841 213.555 185.545 212.515L186.022 213.289C184.326 214.321 182.606 215.394 180.902 216.483ZM473.35 213.063C471.646 212.031 469.893 210.99 468.141 209.982L468.593 209.191C470.345 210.199 472.106 211.24 473.818 212.281L473.35 213.063ZM191.207 210.216L190.746 209.425C192.466 208.425 194.243 207.424 196.012 206.456L196.448 207.255C194.687 208.223 192.919 209.223 191.207 210.216ZM462.867 207.021C461.099 206.053 459.306 205.093 457.529 204.174L457.949 203.367C459.734 204.295 461.535 205.254 463.303 206.222L462.867 207.021ZM201.762 204.407L201.342 203.601C203.118 202.673 204.935 201.754 206.728 200.858L207.132 201.673C205.339 202.568 203.53 203.48 201.762 204.407ZM452.127 201.439C450.326 200.552 448.492 199.672 446.667 198.825L447.055 198.003C448.88 198.85 450.729 199.737 452.53 200.624L452.127 201.439ZM212.559 199.067L212.171 198.245C213.98 197.397 215.83 196.559 217.671 195.744L218.042 196.575C216.201 197.389 214.36 198.228 212.559 199.067ZM441.152 196.333C439.302 195.518 437.429 194.719 435.579 193.961L435.927 193.122C437.784 193.888 439.666 194.687 441.515 195.502L441.152 196.333ZM223.566 194.203L223.219 193.364C225.068 192.598 226.95 191.84 228.815 191.105L229.146 191.952C227.289 192.687 225.407 193.445 223.566 194.203ZM429.95 191.702C428.093 190.984 426.187 190.267 424.273 189.573L424.58 188.718C426.494 189.411 428.408 190.129 430.273 190.847L429.95 191.702ZM234.8 189.823L234.485 188.968C236.374 188.274 238.304 187.596 240.202 186.951L240.493 187.814C238.603 188.46 236.689 189.137 234.8 189.823ZM418.556 187.58C416.642 186.935 414.703 186.306 412.789 185.709L413.064 184.838C414.986 185.443 416.932 186.072 418.846 186.717L418.556 187.58ZM246.235 185.935L245.96 185.063C247.874 184.458 249.829 183.862 251.759 183.297L252.017 184.168C250.087 184.741 248.141 185.33 246.235 185.935ZM407.007 183.966C405.085 183.41 403.123 182.869 401.185 182.353L401.419 181.474C403.365 181.99 405.327 182.539 407.258 183.095L407.007 183.966ZM257.832 182.547L257.597 181.667C259.544 181.143 261.522 180.635 263.468 180.159L263.687 181.046C261.74 181.522 259.778 182.022 257.832 182.547ZM395.322 180.861C393.383 180.393 391.397 179.933 389.434 179.505L389.628 178.618C391.599 179.046 393.585 179.505 395.532 179.981L395.322 180.861ZM269.566 179.675L269.364 178.788C271.31 178.352 273.305 177.932 275.291 177.537L275.469 178.433C273.499 178.82 271.504 179.239 269.566 179.675ZM383.523 178.279C381.569 177.892 379.574 177.529 377.579 177.182L377.733 176.287C379.727 176.634 381.738 177.005 383.692 177.392L383.523 178.279ZM281.413 177.311L281.251 176.416C283.23 176.069 285.241 175.738 287.227 175.432L287.365 176.335C285.394 176.634 283.383 176.964 281.413 177.311ZM371.619 176.214C369.633 175.916 367.614 175.633 365.635 175.375L365.748 174.472C367.735 174.73 369.754 175.012 371.748 175.311L371.619 176.214ZM293.357 175.48L293.236 174.577C295.214 174.319 297.241 174.077 299.252 173.851L299.349 174.754C297.346 174.972 295.327 175.222 293.357 175.48ZM359.635 174.674C357.656 174.464 355.637 174.27 353.618 174.101L353.699 173.197C355.718 173.367 357.753 173.56 359.732 173.778L359.635 174.674ZM305.366 174.165L305.285 173.262C307.288 173.084 309.315 172.931 311.325 172.794L311.382 173.706C309.387 173.835 307.36 173.988 305.366 174.165ZM347.602 173.649C345.591 173.52 343.564 173.415 341.569 173.334L341.61 172.423C343.612 172.504 345.648 172.608 347.658 172.738L347.602 173.649ZM317.423 173.367L317.382 172.455C319.393 172.366 321.428 172.294 323.423 172.254L323.447 173.165C321.453 173.213 319.425 173.278 317.423 173.367ZM335.529 173.149C333.655 173.109 331.757 173.092 329.876 173.092H329.488V172.181H329.876C331.757 172.181 333.671 172.197 335.545 172.237L335.529 173.149Z" fill="#2B2B2B"/>
<path d="M231.163 344.189C280.217 295.191 280.217 215.748 231.163 166.75C182.11 117.751 102.579 117.751 53.5251 166.75C4.47158 215.748 4.47157 295.191 53.5251 344.189C102.579 393.188 182.11 393.188 231.163 344.189Z" fill="#FF6765"/>
<path d="M559.723 672.811C599.407 633.172 599.407 568.904 559.723 529.265C520.04 489.626 455.7 489.626 416.016 529.265C376.332 568.904 376.332 633.172 416.016 672.811C455.7 712.451 520.04 712.451 559.723 672.811Z" fill="#FF6765"/>
<path d="M327.385 653.006C341.269 588.144 299.885 524.319 234.95 510.45C170.015 496.581 106.119 537.919 92.2348 602.781C78.35 667.643 119.734 731.467 184.669 745.337C249.604 759.206 313.5 717.868 327.385 653.006Z" fill="#00BDED"/>
<path d="M548.599 293.521C585.738 256.424 585.738 196.278 548.599 159.181C511.46 122.084 451.247 122.084 414.108 159.181C376.97 196.278 376.97 256.424 414.108 293.521C451.247 330.618 511.46 330.618 548.599 293.521Z" fill="#00BDED"/>
<path d="M94.1289 541.887C130.99 505.067 130.99 445.371 94.1289 408.551C57.2678 371.731 -2.49579 371.731 -39.3569 408.551C-76.2179 445.371 -76.2179 505.067 -39.3569 541.887C-2.49579 578.707 57.2678 578.707 94.1289 541.887Z" fill="#E8CA1A"/>
<path d="M410.456 477.743C449.913 438.331 449.913 374.43 410.456 335.018C371 295.606 307.028 295.606 267.571 335.018C228.115 374.43 228.115 438.331 267.571 477.743C307.028 517.155 371 517.155 410.456 477.743Z" fill="#0089D0"/>
<path d="M172.463 323.287C172.648 324.489 171.776 325.618 170.516 325.812L136.429 330.999C135.169 331.192 133.998 330.369 133.812 329.167L133.336 326.046C133.15 324.844 134.022 323.714 135.282 323.521L169.37 318.334C170.629 318.14 171.8 318.963 171.986 320.165L172.463 323.287Z" fill="white"/>
<path d="M170.355 334.613C170.541 335.814 169.862 336.912 168.845 337.073L141.371 341.26C140.353 341.413 139.384 340.566 139.199 339.364L138.722 336.242C138.536 335.04 139.215 333.943 140.232 333.782L167.706 329.595C168.724 329.442 169.693 330.289 169.878 331.491L170.355 334.613Z" fill="white"/>
<path d="M162.885 341.082C163.499 345.115 160.729 348.883 156.691 349.496C152.653 350.109 148.881 347.342 148.268 343.308" fill="white"/>
<path d="M172.673 312.018L130.905 318.374C128.24 318.778 125.761 316.503 125.252 313.187C125.042 311.8 125.211 310.428 125.72 309.299C123.128 299.296 115.205 291.488 109.367 285.744C107.057 283.469 105.062 281.501 103.673 279.702C97.8991 272.636 94.1116 264.077 92.7145 254.946C91.6889 248.234 91.9715 241.531 93.5544 235.013C95.0807 228.713 97.7538 222.864 101.501 217.613C105.248 212.361 109.875 207.973 115.262 204.585C120.842 201.068 126.988 198.785 133.537 197.785C140.079 196.784 146.628 197.139 153.008 198.833C159.162 200.471 164.888 203.27 170.024 207.174C175.16 211.071 179.456 215.862 182.792 221.42C186.248 227.172 188.517 233.488 189.543 240.191C190.189 244.427 190.31 248.71 189.906 252.929C189.608 256.067 189.018 259.172 188.146 262.198L188.324 262.238L187.241 265.013C186.999 265.707 186.741 266.392 186.474 267.054C185.691 269.175 184.366 271.628 182.84 274.467C179.061 281.493 173.949 290.996 174.223 301.2C175.063 301.958 175.838 303.241 176.169 305.427C176.799 309.517 174.869 311.687 172.673 312.018ZM130.638 313.179L171.106 307.016C171.114 306.815 171.106 306.548 171.049 306.218C170.977 305.758 170.888 305.435 170.807 305.242L169.281 305L169.127 302.951C168.223 290.738 174.037 279.928 178.285 272.031C179.731 269.345 180.975 267.029 181.637 265.239L181.661 265.166C181.911 264.553 182.154 263.908 182.38 263.27L182.388 263.238C184.867 256.18 185.57 248.484 184.423 240.982C183.502 234.94 181.459 229.261 178.358 224.09C175.362 219.105 171.502 214.797 166.898 211.305C162.295 207.812 157.175 205.303 151.684 203.843C145.998 202.334 140.16 202.02 134.329 202.907C128.498 203.794 123.015 205.835 118.04 208.965C113.227 211.998 109.092 215.911 105.741 220.614C102.381 225.325 99.9827 230.576 98.6098 236.231C97.1885 242.087 96.93 248.121 97.8587 254.163C99.1105 262.391 102.527 270.095 107.727 276.451L107.776 276.516C108.947 278.041 110.836 279.904 113.025 282.05C119.502 288.439 128.385 297.183 131.026 309.146L131.301 310.404L130.477 311.372C130.428 311.453 130.299 311.824 130.388 312.405C130.436 312.768 130.541 313.018 130.638 313.179Z" fill="white"/>
<path d="M131.583 184.959C130.17 185.176 128.845 184.2 128.627 182.789L125.462 162.033C125.244 160.621 126.221 159.298 127.634 159.081C129.047 158.863 130.372 159.839 130.59 161.25L133.756 182.006C133.965 183.418 132.996 184.741 131.583 184.959Z" fill="white"/>
<path d="M221.394 233.085L200.615 236.247C199.202 236.465 197.877 235.489 197.659 234.077C197.441 232.665 198.418 231.342 199.831 231.124L220.61 227.962C222.024 227.745 223.348 228.721 223.566 230.132C223.784 231.544 222.807 232.867 221.394 233.085Z" fill="white"/>
<path d="M81.0692 254.445L60.2902 257.608C58.877 257.825 57.5526 256.849 57.3345 255.438C57.1165 254.026 58.0936 252.703 59.5069 252.485L80.2858 249.323C81.6991 249.105 83.0235 250.081 83.2416 251.493C83.4596 252.905 82.4825 254.228 81.0692 254.445Z" fill="white"/>
<path d="M175.556 190.428C174.966 190.517 174.352 190.404 173.803 190.073C172.584 189.323 172.204 187.726 172.955 186.507L183.995 168.64C184.746 167.422 186.345 167.042 187.564 167.793C188.784 168.543 189.163 170.14 188.412 171.358L177.373 189.226C176.961 189.895 176.283 190.315 175.556 190.428Z" fill="white"/>
<path d="M90.7036 203.343C89.9768 203.456 89.2096 203.254 88.612 202.738L72.7512 188.968C71.669 188.032 71.556 186.394 72.4927 185.314C73.4295 184.233 75.0689 184.12 76.1511 185.055L92.02 198.825C93.1021 199.761 93.2152 201.399 92.2784 202.48C91.8504 202.964 91.2931 203.254 90.7036 203.343Z" fill="white"/>
<path d="M356.267 483.686C356.001 483.686 355.734 483.653 355.468 483.597L324.473 476.74C323.52 476.53 322.704 475.958 322.179 475.135C321.654 474.312 321.485 473.336 321.695 472.384L351.422 338.202C351.632 337.25 352.205 336.436 353.021 335.911C353.844 335.387 354.822 335.218 355.775 335.427L386.769 342.276C387.722 342.486 388.538 343.05 389.063 343.873C389.588 344.696 389.757 345.672 389.547 346.624L359.829 480.822C359.619 481.774 359.045 482.581 358.23 483.105C357.632 483.484 356.954 483.686 356.267 483.686ZM354.991 338.388C354.838 338.388 354.725 338.444 354.66 338.485C354.579 338.533 354.442 338.654 354.394 338.872L324.667 473.054C324.618 473.271 324.699 473.433 324.747 473.513C324.796 473.594 324.917 473.739 325.135 473.78L356.13 480.636C356.348 480.685 356.509 480.604 356.59 480.556C356.671 480.507 356.816 480.386 356.857 480.169L386.584 345.987C386.632 345.769 386.551 345.607 386.503 345.527C386.454 345.446 386.333 345.301 386.115 345.261L355.12 338.404C355.08 338.396 355.032 338.388 354.991 338.388Z" fill="white"/>
<path d="M349.885 349.936L349.15 353.252L365.653 356.9L366.388 353.584L349.885 349.936Z" fill="white"/>
<path d="M346.617 365.765L345.882 369.081L357.6 371.671L358.334 368.355L346.617 365.765Z" fill="white"/>
<path d="M342.867 381.574L342.133 384.89L358.636 388.539L359.371 385.223L342.867 381.574Z" fill="white"/>
<path d="M339.629 397.43L338.895 400.746L350.612 403.337L351.347 400.021L339.629 397.43Z" fill="white"/>
<path d="M335.897 413.07L335.162 416.386L351.666 420.034L352.401 416.718L335.897 413.07Z" fill="white"/>
<path d="M332.649 428.915L331.914 432.231L343.631 434.821L344.366 431.506L332.649 428.915Z" fill="white"/>
<path d="M328.913 444.643L328.178 447.959L344.682 451.608L345.417 448.292L328.913 444.643Z" fill="white"/>
<path d="M325.653 460.472L324.918 463.788L336.635 466.379L337.37 463.063L325.653 460.472Z" fill="white"/>
<path d="M330.352 367.186C330.239 367.186 330.134 367.178 330.021 367.154L307.78 362.241C307.239 362.12 306.811 361.725 306.658 361.192L306.626 361.096C306.496 360.66 306.569 360.184 306.827 359.805L318.973 342.018C319.321 341.51 319.951 341.259 320.556 341.389L327.251 342.865C327.857 343.002 328.317 343.486 328.422 344.099L331.919 365.347C331.992 365.798 331.862 366.258 331.555 366.597L331.491 366.67C331.2 367.009 330.78 367.186 330.352 367.186ZM310.55 359.74L328.575 363.725L325.596 345.607L320.912 344.567L310.55 359.74Z" fill="white"/>
<path d="M326.984 345.785C326.871 345.785 326.766 345.777 326.653 345.753L319.959 344.276C319.466 344.172 319.062 343.825 318.876 343.357C318.691 342.889 318.747 342.357 319.03 341.945L323.052 336.065C323.681 335.137 324.61 334.709 325.547 334.911C326.476 335.113 327.138 335.903 327.324 337.008L328.478 344.034C328.559 344.535 328.39 345.035 328.026 345.382C327.744 345.64 327.372 345.785 326.984 345.785ZM322.817 341.792L325.127 342.3L324.61 339.162L322.817 341.792Z" fill="white"/>
<path d="M311.624 452.363C311.519 452.363 311.406 452.354 311.293 452.33L288.875 447.377C288.479 447.289 288.14 447.055 287.922 446.708C287.704 446.369 287.631 445.958 287.72 445.562L306.456 360.991C306.545 360.595 306.779 360.257 307.126 360.039C307.465 359.821 307.877 359.748 308.273 359.837L330.691 364.798C331.507 364.976 332.024 365.79 331.846 366.605L313.11 451.177C312.949 451.879 312.319 452.363 311.624 452.363ZM291.015 444.731L310.47 449.031L328.551 367.42L309.097 363.12L291.015 444.731Z" fill="white"/>
<path d="M299.026 470.545C297.904 470.545 296.716 470.408 295.489 470.134C291.766 469.311 289.012 467.504 287.316 464.777C284.393 460.074 285.758 454.379 285.822 454.137L286.444 451.33C286.533 450.935 286.767 450.596 287.114 450.378C287.454 450.16 287.865 450.088 288.261 450.176L310.68 455.129C311.495 455.307 312.012 456.122 311.834 456.936L311.083 460.332C311.011 460.655 309.815 465.899 305.374 468.754C303.508 469.948 301.392 470.545 299.026 470.545ZM289.077 453.46L288.778 454.823C288.762 454.904 287.664 459.59 289.909 463.188C291.16 465.189 293.26 466.528 296.143 467.165C299.139 467.826 301.691 467.496 303.718 466.189C307.158 463.979 308.095 459.719 308.103 459.679C308.103 459.679 308.103 459.671 308.103 459.663L308.531 457.743L289.077 453.46Z" fill="white"/>
<path d="M304.057 450.685C303.952 450.685 303.839 450.677 303.726 450.644L296.159 448.975C295.764 448.886 295.424 448.652 295.206 448.305C294.988 447.966 294.916 447.555 295.005 447.159L313.724 362.669C313.902 361.854 314.717 361.338 315.533 361.515L323.1 363.185C323.496 363.274 323.835 363.508 324.053 363.854C324.271 364.201 324.344 364.605 324.255 365L305.535 449.499C305.382 450.201 304.752 450.685 304.057 450.685ZM298.291 446.345L302.895 447.361L320.96 365.831L316.357 364.814L298.291 446.345Z" fill="white"/>
<path d="M310.348 458.122C310.235 458.122 310.13 458.114 310.017 458.09L287.599 453.137C287.203 453.048 286.864 452.814 286.646 452.467C286.428 452.129 286.355 451.717 286.444 451.322L287.72 445.554C287.906 444.739 288.713 444.223 289.529 444.401L311.947 449.354C312.343 449.442 312.682 449.676 312.9 450.023C313.118 450.362 313.191 450.773 313.102 451.169L311.826 456.936C311.737 457.332 311.503 457.67 311.156 457.888C310.914 458.042 310.631 458.122 310.348 458.122ZM289.739 450.499L309.194 454.799L309.815 452L290.361 447.7L289.739 450.499Z" fill="white"/>
<path d="M428.255 573.839C428.246 573.839 428.23 573.839 428.222 573.847C428.174 573.847 428.133 573.856 428.085 573.864C427.98 573.872 427.875 573.88 427.77 573.896C427.762 573.896 427.754 573.904 427.746 573.904C427.722 573.912 427.705 573.92 427.681 573.92C427.641 573.928 427.6 573.944 427.56 573.96C427.358 574.025 427.164 574.106 426.987 574.219C426.979 574.227 426.97 574.235 426.962 574.243C426.785 574.364 426.631 574.501 426.486 574.662C426.47 574.678 426.454 574.686 426.437 574.703C426.429 574.711 426.429 574.727 426.421 574.735C426.397 574.759 426.373 574.791 426.357 574.815C426.349 574.824 426.341 574.84 426.341 574.848C426.26 574.953 426.195 575.066 426.139 575.187C426.131 575.203 426.131 575.219 426.123 575.235C426.114 575.251 426.114 575.267 426.106 575.275C426.09 575.316 426.074 575.348 426.066 575.388C426.042 575.461 426.009 575.533 425.993 575.606V575.614C425.985 575.638 425.985 575.662 425.985 575.687C425.961 575.792 425.937 575.888 425.929 576.001C425.929 576.017 425.929 576.034 425.929 576.042C425.929 576.082 425.929 576.122 425.929 576.163C425.929 576.276 425.929 576.38 425.937 576.493C425.937 576.518 425.945 576.542 425.953 576.558C425.961 576.59 425.961 576.622 425.969 576.647C425.977 576.687 425.985 576.719 425.993 576.76C426.001 576.808 426.018 576.864 426.034 576.913C426.034 576.921 426.042 576.929 426.042 576.937C426.082 577.066 426.139 577.187 426.195 577.308C426.203 577.316 426.211 577.324 426.211 577.332C426.211 577.34 426.219 577.34 426.219 577.348C426.228 577.356 426.228 577.373 426.236 577.381L469.707 652.304C470.095 652.966 470.773 653.402 471.541 653.474C471.613 653.482 471.678 653.482 471.751 653.482C472.445 653.482 473.099 653.176 473.551 652.643L498.667 622.893L526.101 633.299C526.117 633.307 526.222 633.348 526.238 633.348C526.512 633.452 526.787 633.501 527.07 633.501C527.764 633.501 528.451 633.194 528.903 632.622C529.412 631.992 529.533 631.154 529.29 630.411L526.706 594.038L560.431 579.01C561.448 578.558 562.005 577.461 561.779 576.372C561.553 575.283 560.592 574.509 559.486 574.501L428.287 573.839C428.263 573.839 428.263 573.839 428.255 573.839ZM501.873 619.07L503.916 616.65L510.224 609.172L521.231 626.41L501.873 619.07ZM548.495 579.155L523.912 590.11L456.964 578.696L548.495 579.155ZM521.99 594.571L523.936 621.877L512.485 603.936C512.444 603.872 512.388 603.815 512.339 603.759C512.283 603.694 512.234 603.622 512.178 603.565C512.129 603.517 512.073 603.468 512.016 603.428C511.976 603.388 511.936 603.356 511.887 603.323C511.839 603.291 511.79 603.251 511.742 603.218C511.645 603.162 511.548 603.114 511.451 603.073C511.395 603.049 511.346 603.009 511.282 602.993C511.282 602.993 511.282 602.993 511.273 602.993L455.09 583.181L521.99 594.571ZM506.485 606.292L472.082 647.045L433.504 580.559L506.485 606.292Z" fill="white"/>
<path d="M268.33 549.55C262.661 549.55 258.05 554.157 258.05 559.819V566.725C255.385 564.651 252.049 563.409 248.423 563.409C240.105 563.409 233.289 569.911 232.764 578.091H211C210.475 569.911 203.659 563.409 195.341 563.409C190.141 563.409 185.537 565.958 182.679 569.863C179.82 565.958 175.208 563.409 170.008 563.409C166.382 563.409 163.046 564.651 160.381 566.725V559.819C160.381 554.157 155.77 549.55 150.101 549.55C144.432 549.55 139.82 554.157 139.82 559.819V678.312C135.484 680.965 132.585 685.733 132.585 691.17C132.585 699.495 139.36 706.263 147.686 706.263H271.948C280.274 706.263 287.05 699.495 287.05 691.17C287.05 685.241 283.601 680.11 278.611 677.65V559.819C278.611 554.157 273.991 549.55 268.33 549.55ZM264.131 612.842V579.099V559.819C264.131 557.512 266.012 555.625 268.33 555.625C270.64 555.625 272.521 557.504 272.521 559.819V676.109C272.328 676.101 272.142 676.077 271.948 676.077H264.131V612.842ZM248.415 569.491C253.721 569.491 258.042 573.807 258.042 579.107C258.042 584.407 253.721 588.722 248.415 588.722C243.11 588.722 238.789 584.407 238.789 579.107C238.797 573.799 243.11 569.491 248.415 569.491ZM195.333 569.491C200.639 569.491 204.96 573.807 204.96 579.107C204.96 584.407 200.639 588.722 195.333 588.722C190.027 588.722 185.707 584.407 185.707 579.107C185.715 573.799 190.027 569.491 195.333 569.491ZM182.67 588.343C185.529 592.24 190.141 594.789 195.333 594.789C203.304 594.789 209.894 588.819 210.895 581.124H232.845C233.847 588.819 240.436 594.789 248.407 594.789C252.033 594.789 255.369 593.538 258.034 591.473V600.46C255.369 598.386 252.033 597.144 248.407 597.144C242.399 597.144 237.174 600.532 234.533 605.485C231.892 600.524 226.667 597.144 220.659 597.144C212.341 597.144 205.525 603.646 205 611.826H160.365V591.473C163.03 593.538 166.365 594.789 169.991 594.789C175.2 594.797 179.812 592.248 182.67 588.343ZM220.675 665.897C228.823 665.897 235.543 659.661 236.31 651.724H258.05V676.085H160.381V662.581C163.046 664.655 166.382 665.897 170.008 665.897C178.156 665.897 184.875 659.661 185.642 651.724H205.048C205.808 659.661 212.518 665.897 220.675 665.897ZM211.049 650.199C211.049 644.899 215.369 640.583 220.675 640.583C225.981 640.583 230.293 644.899 230.293 650.199C230.293 655.499 225.981 659.815 220.675 659.815C215.361 659.815 211.049 655.499 211.049 650.199ZM236.302 648.682C235.534 640.745 228.815 634.509 220.667 634.509C212.518 634.509 205.799 640.745 205.032 648.682H185.626C184.859 640.745 178.14 634.509 169.991 634.509C166.365 634.509 163.03 635.76 160.365 637.825V614.875H205.097C206.098 622.57 212.688 628.54 220.659 628.54C226.667 628.54 231.892 625.152 234.533 620.191C237.174 625.152 242.399 628.54 248.407 628.54C252.033 628.54 255.369 627.289 258.034 625.224V648.682H236.302ZM211.049 612.842C211.049 607.542 215.369 603.226 220.675 603.226C225.981 603.226 230.293 607.542 230.293 612.842C230.293 618.142 225.981 622.458 220.675 622.458C215.361 622.458 211.049 618.142 211.049 612.842ZM248.415 622.458C243.11 622.458 238.789 618.142 238.789 612.842C238.789 607.542 243.11 603.226 248.415 603.226C253.721 603.226 258.042 607.542 258.042 612.842C258.042 618.142 253.729 622.458 248.415 622.458ZM170 569.491C175.305 569.491 179.618 573.799 179.626 579.099C179.626 579.099 179.626 579.099 179.626 579.107C179.618 584.407 175.305 588.714 170 588.714C164.694 588.714 160.373 584.399 160.373 579.099C160.373 573.799 164.694 569.491 170 569.491ZM170 640.583C175.305 640.583 179.626 644.899 179.626 650.199C179.626 655.499 175.305 659.815 170 659.815C164.694 659.815 160.373 655.499 160.373 650.199C160.373 644.899 164.694 640.583 170 640.583ZM145.901 559.819C145.901 557.512 147.783 555.625 150.101 555.625C152.411 555.625 154.292 557.504 154.292 559.819V579.059C154.292 579.075 154.292 579.091 154.292 579.107C154.292 579.123 154.292 579.139 154.292 579.147V650.151C154.292 650.167 154.292 650.183 154.292 650.199C154.292 650.215 154.292 650.231 154.292 650.247V676.085H147.678C147.072 676.085 146.483 676.134 145.893 676.198V559.819H145.901ZM280.961 691.17C280.961 696.139 276.915 700.18 271.94 700.18H147.678C142.703 700.18 138.658 696.139 138.658 691.17C138.658 686.201 142.703 682.159 147.678 682.159H271.94C276.915 682.159 280.961 686.201 280.961 691.17Z" fill="white"/>
<path d="M-19.0138 426.194V524.245C-19.0138 531.884 -12.5209 538.096 -4.53394 538.096H59.3131C67.2919 538.096 73.7849 532.376 73.7849 525.35V436.632C73.7849 432.656 71.7255 428.985 68.2126 426.581V426.194C68.2126 418.555 61.7197 412.344 53.7408 412.344H-4.53394C-12.5209 412.352 -19.0138 418.563 -19.0138 426.194ZM-14.3864 426.194C-14.3864 421.112 -9.96893 416.974 -4.54202 416.974H53.7327C59.1596 416.974 63.5771 421.112 63.5771 426.194V427.864C63.5771 428.703 64.0293 429.477 64.7723 429.889C67.5181 431.405 69.1575 433.93 69.1575 436.632V525.35C69.1575 529.827 64.74 533.474 59.3131 533.474H-4.53394C-9.96086 533.474 -14.3783 529.335 -14.3783 524.253V426.194H-14.3864Z" fill="white"/>
<path d="M-3.12877 433.107C-2.71691 433.446 -2.19198 433.632 -1.65898 433.632H9.7117V472.32C9.7117 473.247 10.2609 474.078 11.1169 474.449C11.4076 474.57 11.7226 474.635 12.0294 474.635C12.619 474.635 13.1924 474.417 13.6284 473.998L23.2144 464.858L33.2768 474.03C33.9552 474.651 34.9323 474.804 35.7722 474.441C36.6121 474.07 37.1532 473.239 37.1532 472.328V433.64H59.6684C60.5971 433.64 61.4289 433.091 61.7923 432.236C61.9781 431.809 63.5205 427.985 61.7196 424.565C60.9444 423.096 59.2485 421.193 55.5578 420.459C55.4125 420.426 55.259 420.41 55.1056 420.41H-1.65898C-1.79627 420.41 -1.92548 420.426 -2.06277 420.442C-2.53924 420.523 -6.75479 421.362 -7.6512 424.75C-8.6526 428.566 -4.49358 431.986 -3.12877 433.107ZM-1.41671 425.032H54.8552C56.2604 425.347 57.1811 425.912 57.6091 426.702C57.9806 427.396 57.9967 428.267 57.8917 429.017H34.8354C33.5594 429.017 32.5177 430.05 32.5177 431.333V467.092L24.7326 459.994C24.2885 459.59 23.7312 459.389 23.174 459.389C22.6006 459.389 22.0192 459.598 21.575 460.026L14.3391 466.923V431.333C14.3391 430.058 13.3054 429.017 12.0214 429.017H-0.802949C-3.20953 426.888 -3.16915 425.944 -3.16915 425.936C-3.07224 425.678 -2.23236 425.218 -1.41671 425.032Z" fill="white"/>
<path d="M18.4901 450.773L17.949 453.936C17.8763 454.371 18.054 454.807 18.4093 455.065C18.6112 455.21 18.8535 455.283 19.0877 455.283C19.2734 455.283 19.4591 455.234 19.6287 455.154L22.4795 453.661L25.3222 455.154C25.7098 455.355 26.1863 455.323 26.5416 455.065C26.8969 454.807 27.0746 454.371 27.0019 453.936L26.4608 450.773L28.7624 448.531C29.0774 448.224 29.1905 447.765 29.0532 447.345C28.9159 446.926 28.5525 446.619 28.1164 446.563L24.9345 446.103L23.5132 443.223C23.3194 442.828 22.9156 442.578 22.4714 442.578C22.0272 442.578 21.6315 442.828 21.4296 443.223L20.0083 446.103L16.8265 446.563C16.3904 446.627 16.0269 446.934 15.8897 447.345C15.7524 447.765 15.8654 448.224 16.1804 448.531L18.4901 450.773ZM20.9451 448.297C21.3247 448.24 21.6477 448.006 21.8173 447.668L22.4714 446.345L23.1255 447.668C23.2951 448.006 23.6182 448.248 23.9977 448.297L25.4594 448.507L24.4015 449.539C24.1269 449.805 24.0058 450.185 24.0704 450.564L24.3208 452.024L23.0125 451.338C22.8429 451.249 22.6572 451.209 22.4714 451.209C22.2857 451.209 22.0999 451.249 21.9303 451.338L20.6221 452.024L20.8724 450.572C20.937 450.201 20.8159 449.813 20.5413 449.547L19.4834 448.515L20.9451 448.297Z" fill="white"/>
</g>
<g opacity="0.2" filter="url(#filter2_f_2_901)">
<path d="M264.097 637H264C262.513 637 261.02 636.982 259.563 636.952L259.575 636.269C261.032 636.299 262.519 636.317 264 636.317H264.097V637ZM268.637 636.946L268.618 636.263C270.13 636.226 271.647 636.178 273.128 636.117L273.158 636.801C271.671 636.867 270.148 636.915 268.637 636.946ZM255.023 636.807C253.518 636.74 251.988 636.661 250.495 636.565L250.538 635.882C252.031 635.978 253.548 636.057 255.053 636.124L255.023 636.807ZM277.686 636.559L277.644 635.876C279.137 635.779 280.654 635.664 282.153 635.531L282.214 636.208C280.709 636.341 279.185 636.462 277.686 636.559ZM245.974 636.226C244.48 636.099 242.957 635.948 241.458 635.791L241.53 635.114C243.023 635.277 244.541 635.422 246.034 635.549L245.974 636.226ZM286.73 635.773L286.657 635.096C288.15 634.933 289.661 634.751 291.149 634.558L291.239 635.235C289.746 635.428 288.229 635.61 286.73 635.773ZM236.948 635.253C235.455 635.06 233.944 634.848 232.457 634.618L232.559 633.941C234.04 634.165 235.546 634.376 237.039 634.57L236.948 635.253ZM295.725 634.594L295.622 633.917C297.103 633.687 298.602 633.445 300.083 633.186L300.204 633.857C298.711 634.123 297.206 634.364 295.725 634.594ZM227.977 633.893C226.502 633.633 224.997 633.355 223.516 633.065L223.649 632.394C225.13 632.684 226.623 632.962 228.092 633.222L227.977 633.893ZM304.659 633.028L304.526 632.357C306.001 632.067 307.489 631.753 308.951 631.426L309.096 632.091C307.634 632.418 306.14 632.732 304.659 633.028ZM219.079 632.134C217.598 631.807 216.111 631.463 214.66 631.112L214.823 630.447C216.268 630.798 217.749 631.142 219.23 631.469L219.079 632.134ZM313.522 631.07L313.358 630.405C314.827 630.042 316.302 629.667 317.741 629.28L317.916 629.939C316.478 630.326 314.997 630.707 313.522 631.07ZM210.259 629.988C208.796 629.595 207.321 629.19 205.888 628.773L206.076 628.12C207.508 628.537 208.971 628.942 210.434 629.335L210.259 629.988ZM322.287 628.718L322.093 628.065C323.55 627.636 325.007 627.195 326.422 626.754L326.627 627.406C325.213 627.854 323.75 628.295 322.287 628.718ZM201.548 627.461C200.103 627.007 198.646 626.53 197.22 626.046L197.437 625.399C198.864 625.883 200.315 626.355 201.754 626.808L201.548 627.461ZM330.937 625.992L330.72 625.345C332.153 624.861 333.585 624.354 334.988 623.846L335.223 624.487C333.815 625 332.376 625.502 330.937 625.992ZM192.922 624.535C191.489 624.015 190.056 623.477 188.66 622.933L188.908 622.298C190.298 622.836 191.725 623.374 193.151 623.894L192.922 624.535ZM339.467 622.885L339.219 622.25C340.616 621.706 342.024 621.138 343.396 620.569L343.656 621.198C342.278 621.772 340.87 622.341 339.467 622.885ZM184.434 621.24C183.038 620.66 181.629 620.062 180.251 619.451L180.529 618.828C181.907 619.433 183.31 620.037 184.7 620.612L184.434 621.24ZM347.815 619.421L347.537 618.798C348.904 618.194 350.282 617.571 351.642 616.936L351.932 617.553C350.572 618.188 349.188 618.816 347.815 619.421ZM176.11 617.571C174.744 616.93 173.36 616.271 172.012 615.6L172.314 614.99C173.662 615.655 175.034 616.314 176.4 616.954L176.11 617.571ZM356.013 615.594L355.71 614.984C357.058 614.319 358.412 613.63 359.73 612.94L360.045 613.545C358.721 614.234 357.361 614.923 356.013 615.594ZM167.955 613.545C166.619 612.85 165.271 612.13 163.947 611.399L164.274 610.801C165.598 611.526 166.94 612.245 168.27 612.94L167.955 613.545ZM364.034 611.411L363.708 610.813C365.026 610.087 366.35 609.344 367.637 608.594L367.976 609.186C366.682 609.936 365.352 610.68 364.034 611.411ZM159.988 609.168C158.676 608.407 157.358 607.627 156.077 606.847L156.433 606.267C157.709 607.04 159.021 607.82 160.326 608.576L159.988 609.168ZM371.869 606.877L371.512 606.297C372.788 605.523 374.075 604.719 375.345 603.909L375.714 604.483C374.444 605.293 373.15 606.097 371.869 606.877ZM152.226 604.447C150.963 603.637 149.681 602.803 148.424 601.963L148.804 601.394C150.056 602.235 151.331 603.069 152.595 603.873L152.226 604.447ZM379.504 602.005L379.123 601.437C380.374 600.596 381.632 599.738 382.847 598.886L383.24 599.442C382.019 600.3 380.767 601.165 379.504 602.005ZM144.676 599.393C143.43 598.517 142.191 597.628 140.988 596.746L141.393 596.196C142.59 597.078 143.829 597.967 145.069 598.837L144.676 599.393ZM386.927 596.806L386.522 596.256C387.725 595.373 388.94 594.461 390.137 593.542L390.554 594.08C389.351 595.005 388.13 595.917 386.927 596.806ZM137.355 594.013C136.164 593.094 134.961 592.151 133.788 591.208L134.218 590.676C135.39 591.619 136.587 592.556 137.778 593.475L137.355 594.013ZM394.115 591.287L393.686 590.755C394.864 589.812 396.037 588.845 397.18 587.89L397.615 588.409C396.472 589.371 395.294 590.338 394.115 591.287ZM130.282 588.325C129.128 587.358 127.973 586.36 126.837 585.369L127.284 584.855C128.414 585.846 129.569 586.838 130.718 587.805L130.282 588.325ZM401.061 585.459L400.613 584.946C401.744 583.954 402.88 582.939 403.98 581.929L404.44 582.431C403.334 583.44 402.197 584.462 401.061 585.459ZM123.457 582.34C122.339 581.319 121.227 580.273 120.145 579.239L120.616 578.749C121.692 579.783 122.804 580.823 123.917 581.844L123.457 582.34ZM407.747 579.33L407.275 578.84C408.363 577.8 409.451 576.736 410.509 575.678L410.993 576.162C409.929 577.22 408.841 578.29 407.747 579.33ZM116.904 576.059C115.834 574.989 114.771 573.901 113.731 572.819L114.226 572.348C115.26 573.43 116.324 574.512 117.388 575.582L116.904 576.059ZM414.166 572.922L413.677 572.45C414.711 571.374 415.75 570.262 416.772 569.15L417.274 569.609C416.246 570.728 415.206 571.84 414.166 572.922ZM110.636 569.512C109.608 568.394 108.592 567.258 107.607 566.139L108.121 565.692C109.1 566.81 110.116 567.941 111.137 569.059L110.636 569.512ZM420.302 566.236L419.788 565.789C420.786 564.652 421.777 563.498 422.738 562.355L423.258 562.796C422.297 563.939 421.306 565.1 420.302 566.236ZM104.651 562.694C103.684 561.545 102.717 560.366 101.774 559.193L102.306 558.764C103.249 559.937 104.216 561.11 105.171 562.258L104.651 562.694ZM426.148 559.29L425.616 558.861C426.553 557.7 427.49 556.503 428.415 555.306L428.953 555.724C428.028 556.921 427.085 558.123 426.148 559.29ZM98.9747 555.627C98.0558 554.43 97.1369 553.209 96.2544 552.006L96.8045 551.601C97.687 552.804 98.5999 554.019 99.5187 555.21L98.9747 555.627ZM431.685 552.09L431.135 551.685C432.03 550.47 432.918 549.231 433.777 548.01L434.333 548.403C433.469 549.63 432.58 550.875 431.685 552.09ZM93.6066 548.324C92.7361 547.085 91.8777 545.828 91.0435 544.588L91.6117 544.208C92.4399 545.447 93.2983 546.698 94.1628 547.931L93.6066 548.324ZM436.902 544.661L436.334 544.28C437.168 543.035 438.002 541.759 438.812 540.49L439.387 540.859C438.577 542.128 437.742 543.404 436.902 544.661ZM88.571 540.798C87.761 539.529 86.957 538.235 86.1772 536.953L86.7575 536.597C87.5313 537.872 88.3353 539.16 89.1453 540.429L88.571 540.798ZM441.799 537.002L441.218 536.645C441.998 535.364 442.778 534.058 443.534 532.752L444.126 533.091C443.358 534.402 442.578 535.72 441.799 537.002ZM83.8619 533.06C83.1063 531.749 82.3567 530.425 81.6373 529.119L82.2358 528.793C82.9491 530.092 83.6987 531.416 84.4543 532.722L83.8619 533.06ZM446.351 529.137L445.752 528.811C446.478 527.493 447.197 526.151 447.892 524.815L448.497 525.129C447.801 526.465 447.076 527.813 446.351 529.137ZM79.4973 525.129C78.8021 523.793 78.113 522.439 77.448 521.097L78.0586 520.795C78.7236 522.131 79.4067 523.485 80.1018 524.815L79.4973 525.129ZM450.558 521.073L449.947 520.771C450.612 519.429 451.271 518.057 451.912 516.684L452.529 516.974C451.888 518.353 451.223 519.731 450.558 521.073ZM75.4894 517.023C74.8486 515.657 74.2199 514.272 73.6154 512.906L74.2381 512.634C74.8365 513.994 75.4652 515.379 76.1 516.739L75.4894 517.023ZM454.409 512.834L453.786 512.555C454.397 511.171 454.995 509.769 455.569 508.384L456.198 508.644C455.624 510.041 455.025 511.449 454.409 512.834ZM71.8382 508.747C71.2639 507.357 70.6957 505.948 70.1516 504.552L70.7863 504.304C71.3304 505.694 71.8926 507.097 72.4669 508.481L71.8382 508.747ZM457.897 504.431L457.262 504.183C457.812 502.775 458.35 501.348 458.858 499.939L459.499 500.175C458.991 501.584 458.447 503.016 457.897 504.431ZM68.5436 500.308C68.0237 498.887 67.5159 497.449 67.0323 496.028L67.6791 495.811C68.1628 497.225 68.6645 498.664 69.1844 500.078L68.5436 500.308ZM461.016 495.877L460.369 495.659C460.853 494.233 461.324 492.782 461.778 491.343L462.431 491.549C461.977 492.987 461.5 494.444 461.016 495.877ZM65.6238 491.718C65.1704 490.279 64.7291 488.822 64.306 487.378L64.9588 487.184C65.376 488.623 65.8233 490.08 66.2706 491.512L65.6238 491.718ZM463.742 487.202L463.09 487.015C463.507 485.576 463.918 484.107 464.305 482.656L464.964 482.832C464.577 484.289 464.166 485.758 463.742 487.202ZM63.0788 483.013C62.6859 481.556 62.3111 480.075 61.9544 478.618L62.6194 478.455C62.9761 479.906 63.3508 481.381 63.7438 482.838L63.0788 483.013ZM466.088 478.437L465.423 478.274C465.78 476.823 466.124 475.336 466.445 473.867L467.11 474.012C466.789 475.493 466.445 476.98 466.088 478.437ZM60.9268 474.199C60.6003 472.724 60.286 471.231 59.9958 469.756L60.6668 469.623C60.957 471.092 61.2713 472.579 61.5978 474.048L60.9268 474.199ZM468.04 469.575L467.369 469.442C467.66 467.973 467.938 466.474 468.198 464.999L468.869 465.12C468.615 466.601 468.337 468.1 468.04 469.575ZM59.1555 465.295C58.8956 463.808 58.6478 462.302 58.418 460.815L59.0951 460.713C59.3248 462.194 59.5666 463.693 59.8326 465.174L59.1555 465.295ZM469.606 460.64L468.929 460.537C469.159 459.044 469.37 457.539 469.564 456.058L470.241 456.149C470.047 457.63 469.836 459.141 469.606 460.64ZM57.7773 456.33C57.5778 454.831 57.3964 453.313 57.2332 451.826L57.9103 451.754C58.0735 453.241 58.2548 454.752 58.4483 456.245L57.7773 456.33ZM470.779 451.639L470.102 451.566C470.265 450.085 470.41 448.568 470.537 447.063L471.214 447.123C471.087 448.635 470.942 450.152 470.779 451.639ZM56.7919 447.311C56.6589 445.811 56.5441 444.294 56.4473 442.789L57.1304 442.747C57.2272 444.246 57.342 445.763 57.475 447.256L56.7919 447.311ZM471.559 442.601L470.876 442.559C470.972 441.054 471.051 439.531 471.117 438.043L471.801 438.074C471.74 439.567 471.655 441.09 471.559 442.601ZM56.1995 438.255C56.133 436.75 56.0846 435.226 56.0484 433.733L56.7315 433.715C56.7617 435.208 56.8161 436.726 56.8826 438.225L56.1995 438.255ZM471.952 433.534L471.269 433.522C471.299 432.023 471.317 430.499 471.317 429V428.625H472V429C472 430.505 471.982 432.029 471.952 433.534ZM56.6831 429.193H56V429C56 427.549 56.0121 426.092 56.0423 424.66L56.7254 424.672C56.6952 426.098 56.6831 427.555 56.6831 429V429.193ZM471.256 424.103C471.22 422.61 471.172 421.087 471.105 419.582L471.788 419.552C471.855 421.063 471.909 422.586 471.94 424.085L471.256 424.103ZM56.8645 420.15L56.1814 420.12C56.2418 418.621 56.3264 417.097 56.4171 415.586L57.1002 415.628C57.0095 417.14 56.9309 418.657 56.8645 420.15ZM470.858 415.066C470.755 413.567 470.64 412.05 470.507 410.556L471.184 410.496C471.317 411.995 471.432 413.512 471.535 415.018L470.858 415.066ZM57.4387 411.125L56.7617 411.064C56.8886 409.571 57.0337 408.048 57.1969 406.548L57.874 406.621C57.7168 408.12 57.5717 409.638 57.4387 411.125ZM470.06 406.059C469.896 404.566 469.715 403.054 469.515 401.567L470.193 401.477C470.392 402.964 470.573 404.481 470.737 405.98L470.06 406.059ZM58.406 402.136L57.7289 402.051C57.9223 400.558 58.1339 399.047 58.3576 397.559L59.0346 397.662C58.811 399.143 58.5994 400.648 58.406 402.136ZM468.875 397.094C468.645 395.613 468.397 394.108 468.137 392.633L468.808 392.512C469.068 393.993 469.322 395.498 469.552 396.991L468.875 397.094ZM59.7601 393.195L59.089 393.08C59.349 391.599 59.6271 390.1 59.9172 388.619L60.5882 388.752C60.2981 390.221 60.02 391.72 59.7601 393.195ZM467.297 388.189C467.007 386.727 466.692 385.239 466.366 383.764L467.031 383.619C467.357 385.1 467.672 386.594 467.968 388.057L467.297 388.189ZM61.5071 384.321L60.8421 384.176C61.1625 382.701 61.5071 381.213 61.8638 379.757L62.5287 379.92C62.1721 381.371 61.8335 382.852 61.5071 384.321ZM465.332 379.358C464.976 377.901 464.595 376.426 464.208 374.975L464.867 374.8C465.26 376.25 465.641 377.731 465.997 379.194L465.332 379.358ZM63.641 375.531L62.9821 375.356C63.369 373.899 63.7801 372.43 64.1972 370.985L64.85 371.173C64.439 372.617 64.0279 374.08 63.641 375.531ZM462.987 370.622C462.564 369.184 462.122 367.727 461.669 366.294L462.322 366.089C462.775 367.527 463.223 368.984 463.646 370.429L462.987 370.622ZM66.1618 366.844L65.509 366.639C65.9623 365.2 66.4339 363.743 66.9235 362.31L67.5703 362.528C67.0867 363.961 66.6092 365.412 66.1618 366.844ZM460.254 362.008C459.771 360.588 459.263 359.155 458.749 357.746L459.39 357.511C459.91 358.925 460.418 360.364 460.901 361.791L460.254 362.008ZM69.0695 358.248L68.4287 358.018C68.9426 356.61 69.4806 355.171 70.0307 353.757L70.6654 354.004C70.1153 355.413 69.5773 356.84 69.0695 358.248ZM457.141 353.515C456.597 352.124 456.029 350.716 455.455 349.338L456.083 349.078C456.658 350.462 457.232 351.87 457.776 353.267L457.141 353.515ZM72.352 349.791L71.7233 349.531C72.2976 348.147 72.8961 346.738 73.5066 345.348L74.1293 345.62C73.5248 347.004 72.9263 348.407 72.352 349.791ZM453.677 345.197C453.073 343.831 452.444 342.452 451.809 341.092L452.426 340.802C453.067 342.162 453.695 343.546 454.3 344.919L453.677 345.197ZM76.0033 341.485L75.3867 341.195C76.0274 339.829 76.6864 338.444 77.3513 337.096L77.9619 337.399C77.2969 338.747 76.638 340.125 76.0033 341.485ZM449.851 337.03C449.186 335.694 448.497 334.34 447.801 333.01L448.406 332.695C449.101 334.025 449.796 335.385 450.461 336.728L449.851 337.03ZM80.0112 333.36L79.4067 333.046C80.1018 331.71 80.8273 330.356 81.5527 329.038L82.1511 329.365C81.4257 330.682 80.7063 332.024 80.0112 333.36ZM445.668 329.038C444.948 327.732 444.199 326.415 443.449 325.109L444.041 324.764C444.797 326.07 445.547 327.394 446.272 328.706L445.668 329.038ZM84.3757 325.417L83.7833 325.079C84.5389 323.773 85.3188 322.455 86.0986 321.167L86.6789 321.524C85.9051 322.806 85.1253 324.111 84.3757 325.417ZM441.14 321.234C440.36 319.958 439.556 318.671 438.746 317.407L439.32 317.039C440.13 318.308 440.94 319.602 441.72 320.877L441.14 321.234ZM89.0788 317.673L88.5045 317.305C89.3146 316.035 90.1488 314.76 90.9891 313.502L91.5573 313.883C90.717 315.134 89.8828 316.41 89.0788 317.673ZM436.273 313.629C435.439 312.39 434.581 311.133 433.716 309.905L434.273 309.512C435.137 310.746 436.001 312.003 436.836 313.248L436.273 313.629ZM94.1083 310.147L93.5522 309.754C94.4046 308.533 95.2992 307.294 96.2 306.061L96.7501 306.466C95.8493 307.693 94.9607 308.932 94.1083 310.147ZM431.081 306.242C430.192 305.039 429.279 303.824 428.366 302.633L428.904 302.216C429.823 303.407 430.742 304.628 431.631 305.837L431.081 306.242ZM99.4643 302.851L98.9263 302.434C99.8391 301.243 100.782 300.046 101.731 298.861L102.263 299.29C101.32 300.469 100.377 301.666 99.4643 302.851ZM425.568 299.085C424.631 297.918 423.663 296.745 422.696 295.597L423.216 295.155C424.189 296.31 425.156 297.489 426.1 298.655L425.568 299.085ZM105.135 295.79L104.609 295.355C105.582 294.194 106.573 293.04 107.565 291.909L108.079 292.356C107.093 293.481 106.102 294.641 105.135 295.79ZM419.752 292.169C418.755 291.033 417.739 289.902 416.73 288.808L417.231 288.349C418.241 289.449 419.263 290.585 420.26 291.722L419.752 292.169ZM111.095 288.989L110.593 288.53C111.609 287.424 112.649 286.311 113.694 285.217L114.19 285.689C113.144 286.777 112.105 287.889 111.095 288.989ZM413.635 285.513C412.601 284.437 411.537 283.349 410.467 282.285L410.95 281.802C412.02 282.872 413.09 283.96 414.124 285.042L413.635 285.513ZM117.352 282.461L116.868 281.977C117.932 280.913 119.02 279.843 120.108 278.803L120.58 279.293C119.498 280.333 118.41 281.397 117.352 282.461ZM407.239 279.124C406.163 278.096 405.05 277.056 403.938 276.035L404.398 275.533C405.516 276.561 406.634 277.6 407.71 278.634L407.239 279.124ZM123.88 276.204L123.421 275.702C124.527 274.687 125.664 273.665 126.794 272.674L127.242 273.187C126.111 274.173 124.981 275.188 123.88 276.204ZM400.565 273.018C399.441 272.033 398.286 271.041 397.131 270.074L397.567 269.548C398.727 270.522 399.888 271.513 401.012 272.504L400.565 273.018ZM130.669 270.237L130.228 269.718C131.37 268.756 132.549 267.789 133.728 266.84L134.157 267.372C132.978 268.315 131.806 269.282 130.669 270.237ZM393.631 267.203C392.459 266.266 391.262 265.323 390.071 264.41L390.488 263.872C391.685 264.791 392.888 265.734 394.06 266.677L393.631 267.203ZM137.712 264.573L137.295 264.035C138.492 263.11 139.713 262.197 140.916 261.315L141.321 261.865C140.118 262.741 138.903 263.654 137.712 264.573ZM386.45 261.696C385.247 260.813 384.007 259.924 382.768 259.06L383.161 258.504C384.4 259.374 385.646 260.263 386.855 261.152L386.45 261.696ZM144.99 259.223L144.597 258.667C145.824 257.803 147.082 256.944 148.333 256.104L148.714 256.672C147.462 257.506 146.211 258.365 144.99 259.223ZM379.038 256.503C377.787 255.669 376.512 254.834 375.248 254.03L375.617 253.456C376.886 254.266 378.168 255.1 379.419 255.941L379.038 256.503ZM152.486 254.194L152.117 253.619C153.393 252.803 154.686 251.999 155.956 251.219L156.312 251.8C155.043 252.58 153.755 253.384 152.486 254.194ZM371.397 251.637C370.122 250.863 368.81 250.083 367.498 249.327L367.837 248.735C369.149 249.491 370.466 250.27 371.748 251.05L371.397 251.637ZM160.193 249.503L159.849 248.91C161.136 248.161 162.466 247.411 163.79 246.686L164.117 247.284C162.805 248.01 161.481 248.759 160.193 249.503ZM363.551 247.103C362.227 246.377 360.885 245.658 359.555 244.969L359.869 244.364C361.205 245.06 362.553 245.779 363.877 246.504L363.551 247.103ZM168.1 245.15L167.786 244.546C169.116 243.851 170.476 243.161 171.818 242.49L172.12 243.101C170.778 243.766 169.424 244.455 168.1 245.15ZM355.511 242.92C354.163 242.255 352.791 241.596 351.424 240.961L351.715 240.344C353.081 240.979 354.465 241.644 355.813 242.309L355.511 242.92ZM176.177 241.148L175.887 240.532C177.241 239.897 178.625 239.268 180.003 238.658L180.281 239.28C178.909 239.885 177.531 240.514 176.177 241.148ZM347.296 239.093C345.911 238.482 344.509 237.884 343.124 237.316L343.384 236.687C344.775 237.261 346.183 237.86 347.568 238.47L347.296 239.093ZM184.422 237.503L184.162 236.874C185.547 236.3 186.955 235.732 188.352 235.182L188.599 235.817C187.203 236.367 185.801 236.929 184.422 237.503ZM338.911 235.629C337.521 235.091 336.094 234.553 334.661 234.033L334.891 233.392C336.324 233.912 337.756 234.45 339.153 234.988L338.911 235.629ZM192.831 234.221L192.595 233.58C194.01 233.06 195.455 232.552 196.875 232.069L197.093 232.715C195.678 233.199 194.246 233.701 192.831 234.221ZM330.381 232.534C328.949 232.05 327.498 231.579 326.065 231.132L326.271 230.479C327.709 230.932 329.166 231.404 330.599 231.887L330.381 232.534ZM201.391 231.301L201.185 230.648C202.618 230.195 204.081 229.747 205.526 229.324L205.719 229.977C204.274 230.406 202.817 230.854 201.391 231.301ZM321.731 229.826C320.292 229.409 318.823 229.004 317.372 228.617L317.548 227.958C319.004 228.345 320.473 228.756 321.918 229.173L321.731 229.826ZM210.072 228.768L209.896 228.109C211.353 227.716 212.834 227.335 214.291 226.979L214.454 227.644C212.997 227.994 211.522 228.375 210.072 228.768ZM312.99 227.505C311.539 227.154 310.052 226.809 308.583 226.489L308.728 225.824C310.203 226.144 311.69 226.489 313.147 226.846L312.99 227.505ZM218.855 226.61L218.704 225.945C220.161 225.618 221.654 225.304 223.141 225.008L223.274 225.679C221.793 225.975 220.306 226.289 218.855 226.61ZM304.158 225.57C302.695 225.28 301.202 225.008 299.708 224.748L299.823 224.077C301.316 224.337 302.822 224.615 304.285 224.905L304.158 225.57ZM227.723 224.845L227.602 224.174C229.083 223.914 230.589 223.666 232.076 223.436L232.179 224.113C230.698 224.337 229.198 224.585 227.723 224.845ZM295.247 224.023C293.76 223.799 292.249 223.587 290.768 223.394L290.852 222.717C292.339 222.91 293.851 223.122 295.344 223.346L295.247 224.023ZM236.664 223.466L236.573 222.789C238.054 222.596 239.572 222.415 241.077 222.245L241.15 222.922C239.65 223.092 238.139 223.273 236.664 223.466ZM286.276 222.868C284.795 222.711 283.284 222.566 281.773 222.439L281.833 221.762C283.344 221.889 284.868 222.034 286.349 222.197L286.276 222.868ZM245.653 222.481L245.593 221.804C247.092 221.671 248.609 221.556 250.114 221.453L250.157 222.136C248.664 222.233 247.146 222.354 245.653 222.481ZM277.263 222.1C275.758 222.003 274.24 221.925 272.747 221.864L272.778 221.181C274.277 221.242 275.8 221.32 277.305 221.417L277.263 222.1ZM254.678 221.889L254.648 221.206C256.153 221.139 257.677 221.085 259.17 221.054L259.188 221.738C257.695 221.768 256.178 221.822 254.678 221.889ZM268.232 221.725C266.829 221.695 265.409 221.683 264 221.683H263.71V221H264C265.415 221 266.841 221.012 268.244 221.042L268.232 221.725Z" fill="#2B2B2B"/>
</g>
</g>
<defs>
<filter id="filter0_f_2_901" x="314" y="-18" width="135.634" height="130.157" filterUnits="userSpaceOnUse" color-interpolation-filters="sRGB">
<feFlood flood-opacity="0" result="BackgroundImageFix"/>
<feBlend mode="normal" in="SourceGraphic" in2="BackgroundImageFix" result="shape"/>
<feGaussianBlur stdDeviation="4" result="effect1_foregroundBlur_2_901"/>
</filter>
<filter id="filter1_f_2_901" x="-88" y="109" width="806" height="660" filterUnits="userSpaceOnUse" color-interpolation-filters="sRGB">
<feFlood flood-opacity="0" result="BackgroundImageFix"/>
<feBlend mode="normal" in="SourceGraphic" in2="BackgroundImageFix" result="shape"/>
<feGaussianBlur stdDeviation="10.5" result="effect1_foregroundBlur_2_901"/>
</filter>
<filter id="filter2_f_2_901" x="46" y="211" width="436" height="436" filterUnits="userSpaceOnUse" color-interpolation-filters="sRGB">
<feFlood flood-opacity="0" result="BackgroundImageFix"/>
<feBlend mode="normal" in="SourceGraphic" in2="BackgroundImageFix" result="shape"/>
<feGaussianBlur stdDeviation="5" result="effect1_foregroundBlur_2_901"/>
</filter>
<linearGradient id="paint0_linear_2_901" x1="352.263" y1="1030.47" x2="247.585" y2="831.695" gradientUnits="userSpaceOnUse">
<stop/>
<stop offset="1" stop-color="white"/>
</linearGradient>
<clipPath id="clip0_2_901">
<rect width="430" height="932" fill="white"/>
</clipPath>
<clipPath id="clip1_2_901">
<rect width="103.783" height="96.9549" fill="white" transform="translate(339.57 -10) rotate(10.4405)"/>
</clipPath>
<clipPath id="clip2_2_901">
<rect width="571" height="212" fill="white" transform="translate(610.888 964.708) rotate(173.672)"/>
</clipPath>
<clipPath id="clip3_2_901">
<rect width="490" height="233" fill="white" transform="translate(549.592 992.635) rotate(173.672)"/>
</clipPath>
<clipPath id="clip4_2_901">
<rect width="764" height="618" fill="white" transform="translate(-67 130)"/>
</clipPath>
</defs>
</svg>
