<svg width="430" height="932" viewBox="0 0 430 932" fill="none" xmlns="http://www.w3.org/2000/svg">
<g clip-path="url(#clip0_2_1399)">
<rect width="430" height="932" fill="#90FAFE"/>
<g opacity="0.2">
<g clip-path="url(#clip1_2_1399)">
<path d="M330.727 809.83C286.785 841.477 250.159 891.362 196.174 896.088C169.52 898.413 143.467 888.821 117.038 884.632C90.6094 880.442 59.7585 883.39 43.1479 904.334C22.0578 930.951 37.2062 973.282 65.5618 991.998C93.9174 1010.71 130.122 1011.88 164.085 1010.87C292.193 1007.07 421.234 980.091 533.75 918.795C556.371 906.459 579.395 891.583 590.735 868.465C620.129 808.451 541.833 780.349 497.128 772.826C439.731 763.164 378.182 775.665 330.727 809.83Z" fill="#00BDE7"/>
</g>
<g style="mix-blend-mode:soft-light" clip-path="url(#clip2_2_1399)">
<path d="M77.0278 928.725C103.639 894.799 151.625 887.943 194.666 886.26C237.732 884.597 284.477 884.324 318.385 857.743C342.117 839.131 355.868 810.094 379.418 791.217C414.877 762.821 470.986 764.643 504.537 795.274C538.115 825.945 545.084 881.685 520.103 919.64C500.893 948.821 467.697 965.239 435.245 978.089C372.567 1002.93 306.586 1019.32 239.619 1027.01C205.843 1030.89 171.842 1032.53 137.853 1031.92C114.769 1031.49 73.4575 1037.13 62.0427 1014.56C49.5344 989.844 60.5467 949.734 77.0278 928.725Z" fill="url(#paint0_linear_2_1399)"/>
</g>
</g>
<g opacity="0.5" clip-path="url(#clip3_2_1399)">
<path d="M142.361 57.1772C162.715 40.9839 180.741 19.9135 205.727 12.7778C230.041 5.83444 256.444 13.7869 278.166 26.7367C299.888 39.7106 318.322 57.4415 338.628 72.5296C358.933 87.6177 382.384 100.399 407.658 101C432.932 101.577 459.911 86.7768 466.488 62.3427C473.088 37.7885 457.295 11.6006 435.717 -1.82973C414.163 -15.2841 388.072 -18.8399 362.846 -21.8671C257.644 -34.5046 149.658 -42.9616 46.8079 -17.3983C20.9815 -10.9835 -5.56503 -1.63752 -23.1587 18.3518C-36.4079 33.4159 -43.2726 56.985 -36.0959 76.3256C-28.9912 95.45 -6.42911 95.5942 11.5486 96.8916C57.993 100.255 105.806 86.2722 142.361 57.1772Z" fill="#00BDE7"/>
<g style="mix-blend-mode:soft-light">
<path d="M24.8498 89.3886C40.5101 81.3268 52.1447 67.3574 63.9784 54.2765C75.812 41.1955 88.995 28.1811 105.85 23.1397C127.195 16.7436 150.021 24.3168 170.526 33.0449C191.03 41.7729 212.043 51.9445 234.295 50.8341C255.197 49.8125 274.153 38.9524 293.596 31.1793C313.039 23.4062 336.242 18.9423 354.092 29.9356C374.972 42.7945 382.448 73.265 405.673 81.0381C422.992 86.8345 443.076 75.8412 450.73 59.2068C458.405 42.5724 455.131 22.318 445.709 6.6164C436.264 -9.063 421.4 -20.767 405.651 -30.0503C343.32 -66.8947 267.496 -69.8929 195.188 -71.9139C135.268 -73.6017 74.5291 -75.2008 16.2234 -61.2314C-6.78043 -55.7014 -30.1824 -47.1733 -46.3071 -29.806C-61.3923 -13.5492 -68.5589 9.81447 -65.1747 31.779C-59.1583 70.7554 -14.8096 109.821 24.8498 89.3886Z" fill="url(#paint1_linear_2_1399)"/>
</g>
</g>
<g opacity="0.2">
<g clip-path="url(#clip4_2_1399)">
<path d="M115.757 306.813C147.491 361.42 158.261 434.451 201.744 475.96C236.704 509.323 285.169 514.015 329.717 509.035C374.294 504.027 418.497 490.814 463.19 493.779C478.51 494.786 494.348 498.01 506.759 508.776C519.142 519.542 526.975 539.606 521.532 556.705C516.205 573.488 499.906 583.764 497.256 601.468C492.879 630.426 527.205 649.771 527.752 679.219C528.155 701.24 507.393 717.476 489.078 714.712C470.763 711.949 455.847 695.627 445.221 677.607C434.595 659.587 426.935 639.177 415.502 621.906C385.842 577.143 334.469 559.757 286.724 562.635C238.979 565.514 193.336 585.578 147.952 603.483C102.569 621.388 55.2267 637.508 7.62573 632.067C-52.2427 625.245 -108.425 582.181 -138.546 520.003C-168.725 457.825 -171.979 378.202 -147.099 312.829C-122.91 249.269 -83.4007 214.381 -25.1161 217.173C29.7992 219.792 84.1674 252.493 115.757 306.813Z" fill="#00BDE7"/>
</g>
<g style="mix-blend-mode:lighten" clip-path="url(#clip5_2_1399)">
<path d="M19.7423 266.402C79.8481 256.693 144.73 269.096 192.236 315.045C241.942 363.155 270.723 444.842 330.263 471.654C397.784 502.036 480.418 448.977 542.346 493.61C566.948 511.338 584.323 551.555 569.65 581.467C557.113 607.057 528.27 612.288 504.045 608.154C473.977 603.017 445.762 588.014 416.667 577.49C387.573 566.966 355.682 561.077 327.278 574.107C277.195 597.097 250.614 672.488 198.426 686.896C160.911 697.264 123.302 672.019 92.2589 644.361C61.2162 616.704 30.1736 584.443 -7.90706 577.803C-43.7255 571.57 -78.947 589.204 -113.791 601.044C-148.636 612.883 -189.481 617.675 -217.822 590.3C-249.744 559.448 -251.692 498.371 -233.312 454.082C-221.687 426.049 -203.746 403.153 -184.454 382.731C-169.844 367.258 -156.899 347.62 -141.723 333.368C-100.689 294.843 -30.6549 274.546 19.7423 266.402Z" fill="url(#paint2_linear_2_1399)"/>
</g>
</g>
</g>
<defs>
<linearGradient id="paint0_linear_2_1399" x1="352.263" y1="1030.47" x2="247.585" y2="831.695" gradientUnits="userSpaceOnUse">
<stop/>
<stop offset="1" stop-color="white"/>
</linearGradient>
<linearGradient id="paint1_linear_2_1399" x1="194.508" y1="-73.0021" x2="194.508" y2="95.004" gradientUnits="userSpaceOnUse">
<stop/>
<stop offset="1" stop-color="white"/>
</linearGradient>
<linearGradient id="paint2_linear_2_1399" x1="-245" y1="476.289" x2="575.054" y2="476.289" gradientUnits="userSpaceOnUse">
<stop stop-color="white"/>
<stop offset="0.0725" stop-color="#F4F4F4"/>
<stop offset="0.3346" stop-color="#D2D2D2"/>
<stop offset="0.5836" stop-color="#BABABA"/>
<stop offset="0.8118" stop-color="#ABABAB"/>
<stop offset="1" stop-color="#A6A6A6"/>
</linearGradient>
<clipPath id="clip0_2_1399">
<rect width="430" height="932" fill="white"/>
</clipPath>
<clipPath id="clip1_2_1399">
<rect width="571" height="212" fill="white" transform="translate(610.888 964.708) rotate(173.672)"/>
</clipPath>
<clipPath id="clip2_2_1399">
<rect width="490" height="233" fill="white" transform="translate(549.592 992.635) rotate(173.672)"/>
</clipPath>
<clipPath id="clip3_2_1399">
<rect width="507" height="135" fill="white" transform="translate(-39 -34)"/>
</clipPath>
<clipPath id="clip4_2_1399">
<rect width="691.438" height="498" fill="white" transform="translate(-163.715 217)"/>
</clipPath>
<clipPath id="clip5_2_1399">
<rect width="820.054" height="425.975" fill="white" transform="translate(-245 263.302)"/>
</clipPath>
</defs>
</svg>
