<svg width="430" height="932" viewBox="0 0 430 932" fill="none" xmlns="http://www.w3.org/2000/svg">
<g clip-path="url(#clip0_6_355)">
<rect width="430" height="932" fill="white"/>
<g opacity="0.2">
<g clip-path="url(#clip1_6_355)">
<path d="M330.727 809.83C286.785 841.477 250.159 891.362 196.174 896.088C169.52 898.413 143.467 888.821 117.038 884.632C90.6094 880.442 59.7585 883.39 43.1479 904.334C22.0578 930.951 37.2062 973.282 65.5618 991.998C93.9174 1010.71 130.122 1011.88 164.085 1010.87C292.193 1007.07 421.234 980.091 533.75 918.795C556.371 906.459 579.395 891.583 590.735 868.465C620.129 808.452 541.833 780.349 497.128 772.826C439.731 763.164 378.182 775.665 330.727 809.83Z" fill="#00BDE7"/>
</g>
<g style="mix-blend-mode:soft-light" clip-path="url(#clip2_6_355)">
<path d="M77.0278 928.725C103.639 894.799 151.625 887.943 194.666 886.26C237.732 884.597 284.477 884.324 318.385 857.743C342.117 839.131 355.868 810.094 379.418 791.217C414.877 762.821 470.986 764.643 504.537 795.274C538.115 825.945 545.084 881.685 520.103 919.64C500.893 948.821 467.697 965.239 435.245 978.089C372.567 1002.93 306.586 1019.32 239.619 1027.01C205.843 1030.89 171.842 1032.53 137.853 1031.92C114.769 1031.49 73.4575 1037.13 62.0427 1014.56C49.5344 989.844 60.5467 949.734 77.0278 928.725Z" fill="url(#paint0_linear_6_355)"/>
</g>
</g>
<g opacity="0.2" clip-path="url(#clip3_6_355)">
<path d="M167.587 82.5173C193.802 61.6459 217.019 34.4884 249.201 25.2914C280.517 16.3421 314.522 26.592 342.5 43.2829C370.477 60.0047 394.219 82.8579 420.372 102.305C446.526 121.752 476.729 138.226 509.282 139C541.834 139.743 576.582 120.668 585.052 89.175C593.554 57.5274 573.212 23.7741 545.42 6.46387C517.659 -10.8773 484.056 -15.4603 451.565 -19.3621C316.068 -35.6504 176.985 -46.5505 44.5179 -13.6023C11.2543 -5.33431 -22.9368 6.71161 -45.5969 32.4756C-62.6615 51.8915 -71.5029 82.2695 -62.2596 107.197C-53.109 131.847 -24.0497 132.032 -0.894978 133.705C58.9239 138.04 120.505 120.018 167.587 82.5173Z" fill="#00BDE7"/>
<g style="mix-blend-mode:soft-light">
<path d="M16.2365 124.034C36.4065 113.643 51.3915 95.6385 66.6329 78.7786C81.8743 61.9186 98.8535 45.1446 120.562 38.6468C148.053 30.4029 177.454 40.1639 203.863 51.4134C230.271 62.6629 257.336 75.773 285.995 74.3417C312.917 73.025 337.332 59.0275 362.373 49.0089C387.415 38.9903 417.299 33.2367 440.29 47.4059C467.183 63.9796 476.812 103.253 506.725 113.271C529.032 120.742 554.899 106.573 564.756 85.1332C574.642 63.6934 570.426 37.5877 558.289 17.35C546.125 -2.85897 526.98 -17.9442 506.697 -29.9093C426.416 -77.3976 328.757 -81.2619 235.627 -83.8667C158.452 -86.0422 80.2219 -88.1032 5.12595 -70.0983C-24.5022 -62.9707 -54.6432 -51.9789 -75.4114 -29.5944C-94.8406 -8.64114 -104.071 21.472 -99.7122 49.7818C-91.9633 100.018 -34.8436 150.369 16.2365 124.034Z" fill="url(#paint1_linear_6_355)"/>
</g>
</g>
<g opacity="0.2">
<g clip-path="url(#clip4_6_355)">
<path d="M115.757 306.813C147.491 361.42 158.261 434.451 201.744 475.96C236.704 509.323 285.169 514.015 329.717 509.035C374.294 504.027 418.497 490.814 463.19 493.779C478.51 494.786 494.348 498.01 506.759 508.776C519.142 519.542 526.975 539.606 521.532 556.705C516.205 573.488 499.906 583.764 497.256 601.468C492.879 630.426 527.205 649.771 527.752 679.219C528.155 701.24 507.393 717.476 489.078 714.712C470.763 711.949 455.847 695.627 445.221 677.607C434.595 659.587 426.935 639.177 415.502 621.906C385.842 577.143 334.469 559.757 286.724 562.635C238.979 565.514 193.336 585.578 147.952 603.483C102.569 621.388 55.2267 637.508 7.62573 632.067C-52.2427 625.245 -108.425 582.181 -138.546 520.003C-168.725 457.825 -171.979 378.202 -147.099 312.829C-122.91 249.269 -83.4007 214.381 -25.1161 217.173C29.7992 219.792 84.1674 252.493 115.757 306.813Z" fill="#00BDE7"/>
</g>
<g style="mix-blend-mode:lighten" clip-path="url(#clip5_6_355)">
<path d="M19.7423 266.402C79.8481 256.693 144.73 269.096 192.236 315.045C241.942 363.155 270.723 444.842 330.263 471.654C397.784 502.036 480.418 448.977 542.346 493.61C566.948 511.338 584.323 551.555 569.65 581.467C557.113 607.057 528.27 612.288 504.045 608.154C473.977 603.017 445.762 588.014 416.667 577.49C387.573 566.966 355.682 561.077 327.278 574.107C277.195 597.097 250.614 672.488 198.426 686.896C160.911 697.264 123.302 672.019 92.2589 644.361C61.2162 616.704 30.1736 584.443 -7.90706 577.803C-43.7255 571.57 -78.947 589.204 -113.791 601.044C-148.636 612.883 -189.481 617.675 -217.822 590.3C-249.744 559.448 -251.692 498.371 -233.312 454.082C-221.687 426.049 -203.746 403.153 -184.454 382.731C-169.844 367.258 -156.899 347.62 -141.723 333.368C-100.689 294.843 -30.6549 274.546 19.7423 266.402Z" fill="url(#paint2_linear_6_355)"/>
</g>
</g>
</g>
<defs>
<linearGradient id="paint0_linear_6_355" x1="352.263" y1="1030.47" x2="247.585" y2="831.695" gradientUnits="userSpaceOnUse">
<stop/>
<stop offset="1" stop-color="white"/>
</linearGradient>
<linearGradient id="paint1_linear_6_355" x1="234.751" y1="-85.2694" x2="234.751" y2="131.272" gradientUnits="userSpaceOnUse">
<stop/>
<stop offset="1" stop-color="white"/>
</linearGradient>
<linearGradient id="paint2_linear_6_355" x1="-245" y1="476.289" x2="575.054" y2="476.289" gradientUnits="userSpaceOnUse">
<stop stop-color="white"/>
<stop offset="0.0725" stop-color="#F4F4F4"/>
<stop offset="0.3346" stop-color="#D2D2D2"/>
<stop offset="0.5836" stop-color="#BABABA"/>
<stop offset="0.8118" stop-color="#ABABAB"/>
<stop offset="1" stop-color="#A6A6A6"/>
</linearGradient>
<clipPath id="clip0_6_355">
<rect width="430" height="932" fill="white"/>
</clipPath>
<clipPath id="clip1_6_355">
<rect width="571" height="212" fill="white" transform="translate(610.888 964.708) rotate(173.672)"/>
</clipPath>
<clipPath id="clip2_6_355">
<rect width="490" height="233" fill="white" transform="translate(549.592 992.635) rotate(173.672)"/>
</clipPath>
<clipPath id="clip3_6_355">
<rect width="653" height="174" fill="white" transform="translate(-66 -35)"/>
</clipPath>
<clipPath id="clip4_6_355">
<rect width="691.438" height="498" fill="white" transform="translate(-163.715 217)"/>
</clipPath>
<clipPath id="clip5_6_355">
<rect width="820.054" height="425.975" fill="white" transform="translate(-245 263.302)"/>
</clipPath>
</defs>
</svg>
