<svg xmlns="http://www.w3.org/2000/svg" xmlns:xlink="http://www.w3.org/1999/xlink" width="362.02" height="218.68" viewBox="0 0 362.02 218.68">
  <defs>
    <clipPath id="clip-path">
      <rect id="Rectangle_24" data-name="Rectangle 24" width="362.02" height="218.68" transform="translate(34 301)" fill="#fff"/>
    </clipPath>
  </defs>
  <g id="Group_30" data-name="Group 30" transform="translate(-34 -301)" clip-path="url(#clip-path)">
    <path id="Path_116" data-name="Path 116" d="M204.32,308.67c-18.34,6.34-35.77,19.91-49.5,32.57-28.59,26.36-32.86,31.9-68.13,54.02-20.56,12.9-36.77,23.8-44.75,38.39-22.43,40.97,4.29,85.23,60.28,85.23H329.83s26.77.56,46.31-21.34C442.35,423.32,332.52,264.35,204.32,308.67Z" fill="#ecf4fc" fill-rule="evenodd"/>
    <path id="Path_117" data-name="Path 117" d="M293.43,321.34h-137V518.85h137Z" fill="#b0c1e4" opacity="0.17"/>
    <path id="Path_118" data-name="Path 118" d="M295.43,321.34h-137V518.85h137Z" fill="#d1def3"/>
    <path id="Path_119" data-name="Path 119" d="M289.6,478.45l.35,33.12H164.33V328.34H289.6Z" fill="#fff"/>
    <path id="Path_120" data-name="Path 120" d="M226.93,311.75a3.67,3.67,0,1,0,3.67,3.67A3.666,3.666,0,0,0,226.93,311.75Zm-10.41,3.67c1.24-3.68,4.66-6.77,10.42-6.77s9.17,3.09,10.42,6.77c6.99,0,18.29,4.94,19.59,12.93H196.93C198.23,320.36,209.53,315.42,216.52,315.42Z" fill="#b0c1e4" fill-rule="evenodd"/>
    <path id="Path_121" data-name="Path 121" d="M183.37,340.97h87.57a3.879,3.879,0,0,1,3.87,3.87v15.18a3.871,3.871,0,0,1-3.87,3.86H183.37a3.877,3.877,0,0,1-3.87-3.86V344.83A3.884,3.884,0,0,1,183.37,340.97Z" fill="#b0c1e4" fill-rule="evenodd"/>
    <path id="Path_122" data-name="Path 122" d="M387.84,518.88H52.32a.37.37,0,1,0,0,.74H387.84a.376.376,0,0,0,.37-.37A.363.363,0,0,0,387.84,518.88Z" fill="#124984" fill-rule="evenodd"/>
    <path id="Path_123" data-name="Path 123" d="M113.71,512.36l.51-5.45-5.46.14.05,6.23Z" fill="#f5a88f" fill-rule="evenodd"/>
    <path id="Path_124" data-name="Path 124" d="M113.98,511.9c1.06,3.78,4.06,5.43,2.1,7.78h-10c-.02-.05-.03-.09-.05-.15a1.625,1.625,0,0,1-.25-1.64c.58-2.19,2.28-5.56,2.87-5.74C109.8,511.81,111.45,512.78,113.98,511.9Z" fill="#355399" fill-rule="evenodd"/>
    <path id="Path_125" data-name="Path 125" d="M116.71,517.85l.01.41a1.7,1.7,0,0,1-.76,1.42h-9.89a1.407,1.407,0,0,1-.3-1.78Z" fill="#1f3a73" fill-rule="evenodd"/>
    <path id="Path_126" data-name="Path 126" d="M130.45,436.9l-5.85,23.77-2.99,14.15-6.63,34.47a8.33,8.33,0,0,1-3.65.51,17.022,17.022,0,0,1-3.38-.46c-.05-10.18,0-23.1,1.1-36.09.92-10.88-1.28-20-.61-32,.2-3.55,2.74-10.31,2.69-10.18Z" fill="#1f3a73" fill-rule="evenodd"/>
    <path id="Path_127" data-name="Path 127" d="M137.85,512.36l-.02-5.63-5.46.13.58,6.42Z" fill="#f5a88f" fill-rule="evenodd"/>
    <path id="Path_128" data-name="Path 128" d="M138.21,511.15c2.71,3.21,8.54,3.9,10.98,4.7,1.98.65,2.93,2.84,1.39,3.82H131.89c-.02-.05-.03-.09-.05-.15-.28-.92-1-7.52.94-7.38A8.189,8.189,0,0,0,138.21,511.15Z" fill="#355399" fill-rule="evenodd"/>
    <path id="Path_129" data-name="Path 129" d="M151.33,517.85l.01.41a1.7,1.7,0,0,1-.76,1.42H131.89c-.02-.05-.03-.09-.05-.15-.05-.18-.19-1.12-.25-1.64Z" fill="#1f3a73" fill-rule="evenodd"/>
    <path id="Path_130" data-name="Path 130" d="M138.31,435.63l.6,9.03c1.77,18.23.99,41.66-.53,64.61a21.241,21.241,0,0,1-4.86.44c-2.24-.13-1.83-.39-1.83-.39l-5.25-37.52a72.443,72.443,0,0,0-3.97-15.2c-2.01-4.81-4.47-6.19-4.1-11.78.38-5.79-.11-10.27.69-12.27s4.77-1.2,4.77-1.2Z" fill="#1f3a73" fill-rule="evenodd"/>
    <path id="Path_131" data-name="Path 131" d="M127.6,480.2l-1.18-8.4a81.593,81.593,0,0,0-2.1-9.77l1.11-7.96,2.31,19.97Z" fill="#1f3a73" fill-rule="evenodd"/>
    <path id="Path_132" data-name="Path 132" d="M130.15,412.42c3.11,6.82,5.38,12.92,14.27,14.24,6.29.17,13.19-22.03,12.34-24.2-.92-2.36,1.97-1.21-1.64-1.14-4.8-.01-10.14,14.78-11.23,14.71-1.03-.07-6.11-13.93-12.41-16.22C130.73,399.33,127.96,409.12,130.15,412.42Z" fill="#355399" fill-rule="evenodd"/>
    <path id="Path_133" data-name="Path 133" d="M100.54,412.44c-4.22,10.29-5.74,21.64-7.06,32.6a3.569,3.569,0,0,0,2.14,3.13c.87.46.56.89,2.17-.52,2.44-2.94,4.41-14.57,7.06-18.9,5.23-8.55,10.28-16.85,7.49-22.33C112.22,405.65,101.38,409.07,100.54,412.44Z" fill="#1f3a73" fill-rule="evenodd"/>
    <path id="Path_134" data-name="Path 134" d="M107.34,423a127.4,127.4,0,0,1,1.28,26.07c12.15,2.09,23.75,1.43,31-.88-.34-8.02,2.03-46.49-9.85-49.04-8.04-2.25-18.81-1.54-23.27,2.85-4.08,3.83-8.21,15.89-9.63,21.35C92.73,439.32,103.87,430.5,107.34,423Z" fill="#355399" fill-rule="evenodd"/>
    <path id="Path_135" data-name="Path 135" d="M126.65,398.37c1.46,6.62,1.97,28.98,1.81,36.36-.28-.56-12.65-31.33-13.7-36.44A25.57,25.57,0,0,1,126.65,398.37Z" fill="#fff" fill-rule="evenodd"/>
    <path id="Path_136" data-name="Path 136" d="M128.96,422.16l-.49,12.58-5.49-11.56-.33-16.38-1.29-1.8,1.38-1.52,1.71.92-.57,2.07C125.56,410.96,127.83,418.66,128.96,422.16Z" fill="#1f3a73" fill-rule="evenodd"/>
    <path id="Path_137" data-name="Path 137" d="M107.34,423a182.515,182.515,0,0,1,1.28,26.07c3.19-7.9,1.5-28.57.88-31.75A40.324,40.324,0,0,1,107.34,423Z" fill="#1f3a73" fill-rule="evenodd"/>
    <path id="Path_138" data-name="Path 138" d="M127.54,392.34a7.826,7.826,0,0,1-3.39,3.65l.05,2.47.36.31c1.41,1.51-.12,4.61-1.72,4.51-4.05.2-7.17-3.13-5.95-4.93l.53-.59.12-3.5c-.21-.01-1.73-.88-2.19-1.02a2.343,2.343,0,0,1-1.16-1.94c-.04-.92,1.38-.62,1.38-.62-1.73-2.36-3.68-4.29-1.15-6.42s8.36-3.37,8.36-3.37l3.5-1.21c-.45,1.21.15,5.24,1.05,7.76C128.14,389.71,128.68,390.06,127.54,392.34Z" fill="#f5aaad"/>
    <path id="Path_139" data-name="Path 139" d="M119.19,394.75c1.15,1.97,2.49,4.01,5.01,3.71l-.05-2.47C123.03,396.17,121.93,396.09,119.19,394.75Z" fill="#e06d73" fill-rule="evenodd"/>
    <path id="Path_140" data-name="Path 140" d="M128.46,434.73l3.39-27.71-2.75-2.32,1.74-2.06-1.71-3.67a17.578,17.578,0,0,1-2.49-.61C128.11,404.99,128.62,427.35,128.46,434.73Z" fill="#1f3a73" fill-rule="evenodd"/>
    <path id="Path_141" data-name="Path 141" d="M128.46,434.73l-16.72-25.69,1.95-3.02-2.26-1.46.81-5.62a20.99,20.99,0,0,1,2.54-.62C115.86,403.52,128.17,434.16,128.46,434.73Z" fill="#1f3a73" fill-rule="evenodd"/>
    <path id="Path_142" data-name="Path 142" d="M171.01,375.57c.5-.21,1.94.68,1.81,1.64l-2.69,3.93-2.81-2.61Z" fill="#eb5e2c" fill-rule="evenodd"/>
    <path id="Path_143" data-name="Path 143" d="M152.98,388.29l15.32-10.58a5.6,5.6,0,0,1,2.67,2.47l-9.88,15.63-6.1-4.36Z" fill="#b2cbeb" fill-rule="evenodd"/>
    <path id="Path_144" data-name="Path 144" d="M161.09,395.81,101.54,460l-8.1-7.52,59.55-64.19c.77-.83,3.21.18,5.45,2.25S161.86,394.98,161.09,395.81Z" fill="#f18a66" fill-rule="evenodd"/>
    <path id="Path_145" data-name="Path 145" d="M97.03,455.82l-1.16-1.08,60.82-65.58a13.059,13.059,0,0,1,1.73,1.38,13.788,13.788,0,0,1,1.49,1.62L99.1,457.74Z" fill="#eb5e2c" fill-rule="evenodd"/>
    <path id="Path_146" data-name="Path 146" d="M98.88,454.73c2.24,2.08,3.43,4.43,2.65,5.27s-3.21-.18-5.45-2.25-3.43-4.43-2.65-5.27S96.64,452.66,98.88,454.73Z" fill="#ffd600" fill-rule="evenodd"/>
    <path id="Path_147" data-name="Path 147" d="M101.54,460l59.55-64.19.16-.25c.29-.71-.23-2.02-1.32-3.4l-1.57,1.69-57.97,62.5C101.6,457.92,102.11,459.38,101.54,460Z" fill="#c84a17" fill-rule="evenodd"/>
    <path id="Path_148" data-name="Path 148" d="M93.84,468.26l7.13-7.65a1.191,1.191,0,0,0,.89-.31c.83-.9-.45-3.44-2.86-5.68s-5.05-3.33-5.88-2.43a1.186,1.186,0,0,0-.24.96l-7.06,7.62Z" fill="#b2cbeb" fill-rule="evenodd"/>
    <path id="Path_149" data-name="Path 149" d="M99.26,454.33a12.925,12.925,0,0,1,2.73,3.45c.56,1.1.68,2.07.24,2.66v.01a1.311,1.311,0,0,1-.11.12,1.737,1.737,0,0,1-1.48.39l.9-.92.05-.04c.27-.33.14-1.02-.29-1.88a12.193,12.193,0,0,0-2.56-3.22l-.01-.01a12.169,12.169,0,0,0-3.42-2.32c-.91-.38-1.62-.45-1.92-.13a.66.66,0,0,0-.12.22l-.74.82a1.685,1.685,0,0,1,.29-1.56l.03-.03c.54-.55,1.55-.52,2.75-.03A13.164,13.164,0,0,1,99.26,454.33Z" fill="#cb4917"/>
    <path id="Path_150" data-name="Path 150" d="M91.45,463.24c2.24,2.08,3.16,4.18,2.39,5.02s-2.94.07-5.18-2-3.62-4.66-2.85-5.49S89.21,461.16,91.45,463.24Z" fill="#7da8da" fill-rule="evenodd"/>
    <path id="Path_151" data-name="Path 151" d="M97.96,446.18l-.19,1.7,1.3,2.64c.26.36,1.4,2.83.41,2.32-.7-.36-2-1.65-2.06-1.6-.77.66-1.07,5.76-1.14,5.82-.96.9-.96-2.35-.98-2.9a20.171,20.171,0,0,1-.61,2.15,1.087,1.087,0,0,1-.51-.95,12.124,12.124,0,0,0,.03-2.15c-.14-.13-.6,2.19-.72,2.06a.952.952,0,0,1-.28-.76,17.9,17.9,0,0,0,.14-2.11c-.11-.17-.34,1.5-.44,1.34-.07-.13-.33-.11-.34-.26-.28-3.83,1.71-3.38,1.27-7.75C93.59,443.29,97.42,445.43,97.96,446.18Z" fill="#f5aaad"/>
    <path id="Path_152" data-name="Path 152" d="M154.37,404.63s-2.91-1.34-2.57-1.95,2.1.23,2.1.23l-2.09-1.64s-.06-.54.47-.49,2.46.61,2.46.61l-1.94-1.56c-.85-.69-.34-1.18-.03-1.06.43.17,2.32,1.19,2.32,1.19l-1.62-1.9a.875.875,0,0,1,1.06-.15,14.166,14.166,0,0,1,1.67.93C160.28,401.67,155.29,405.3,154.37,404.63Z" fill="#f5aaad"/>
    <path id="Path_153" data-name="Path 153" d="M111.83,384.2a5.154,5.154,0,0,1,2.04-5.71c4.14-3.23,7.69-1.45,9.22-1.07,1.06.26,1.78.23,2.82.45,2.61.55,2.83,5.97.95,7.75-.19.18-.48-2.31-.69-2.15a4.358,4.358,0,0,1-.73.52c-3.06,1.57-6.59-.29-8.38,1.81-.88,1.04-.79,2.54.2,4.86.29.68.68,1.19-.47.65-.53-.25-1.4-.59-1.7-.35a1.368,1.368,0,0,0,.2,2.02c.24.16.68.4.68.4C111.1,392.47,109.96,385.64,111.83,384.2Z" fill="#1f3a73" fill-rule="evenodd"/>
    <path id="Path_154" data-name="Path 154" d="M195.67,469.16h-13a1.656,1.656,0,0,0-1.64,1.65v13a1.674,1.674,0,0,0,1.65,1.65h13a1.6,1.6,0,0,0,1.16-.48,1.642,1.642,0,0,0,.49-1.16v-13a1.6,1.6,0,0,0-.48-1.16A1.65,1.65,0,0,0,195.67,469.16Zm-13-1.98h13a3.657,3.657,0,0,1,2.56,1.06,3.6,3.6,0,0,1,1.06,2.56v13a3.636,3.636,0,0,1-3.62,3.63h-13a3.639,3.639,0,0,1-2.56-1.06,3.579,3.579,0,0,1-1.06-2.56v-13a3.623,3.623,0,0,1,1.07-2.56A3.547,3.547,0,0,1,182.67,467.18Z" fill="#b0c1e4"/>
    <path id="Path_155" data-name="Path 155" d="M273.52,382.04H237.99v41.45h35.53Z" fill="#d1def3"/>
    <path id="Path_156" data-name="Path 156" d="M253.28,403.95c-12.27-.19-13.37,9.15-13.61,19.54h32.97c-.26-8.06-2.65-20.85-13.48-19.53,0,0,.78,3.91-2.06,4.19C253.91,407.98,253.79,405.4,253.28,403.95Z" fill="#1f3a73"/>
    <path id="Path_157" data-name="Path 157" d="M259.44,403.67l-.23,2.94-.93,16.88h2.06l2.92-11.33-1.99-2.25,1.49-1.69-.73-4.1A7.845,7.845,0,0,0,259.44,403.67Z" fill="#6e6f9c" fill-rule="evenodd"/>
    <path id="Path_158" data-name="Path 158" d="M252.61,403.67l.56,2.66,2.86,17.16h-1.98l-3.97-10.99,1.72-2.52-1.67-1.46.2-4.39A15.871,15.871,0,0,1,252.61,403.67Z" fill="#6e6f9c" fill-rule="evenodd"/>
    <path id="Path_159" data-name="Path 159" d="M260.15,403.67c.45,3.83-.43,12.43-1.28,19.82h-3.19c-1.48-7.61-3.26-17.15-3.54-19.82A18.68,18.68,0,0,1,260.15,403.67Z" fill="#fff" fill-rule="evenodd"/>
    <path id="Path_160" data-name="Path 160" d="M259,422.34c-.04.39-.09.77-.13,1.15h-3.28c-.11-.57-.22-1.16-.33-1.75l.97-10.28-.7-1.65,1.31-1.7,1.3,1.73-.72,1.59Z" fill="#eb5e2c" fill-rule="evenodd"/>
    <path id="Path_161" data-name="Path 161" d="M252.96,399.27a4.2,4.2,0,0,1,.4,2.53c-.03.73-.02,1.48-.09,2.21l-.03.27c.49,1.46.74,3.71,3.85,3.86,2.84-.28,2.06-4.18,2.06-4.19a3.053,3.053,0,0,1-.14-.81,2.921,2.921,0,0,1,.09-.78c.04-.18.21-.68.11-.64Z" fill="#f5aaad"/>
    <path id="Path_162" data-name="Path 162" d="M262.45,390.42s2.99,10.83-2.11,12.26a6.571,6.571,0,0,1-7.04-3.2s-3.76-2.47-1.66-4.52a1.2,1.2,0,0,1,1.49,0l-.9-4.52,3.41-3.11,4,1.59Z" fill="#f5aaad"/>
    <path id="Path_163" data-name="Path 163" d="M195.67,439.18h-13a1.656,1.656,0,0,0-1.64,1.65v13a1.674,1.674,0,0,0,1.65,1.65h13a1.6,1.6,0,0,0,1.16-.48,1.642,1.642,0,0,0,.49-1.16v-13a1.6,1.6,0,0,0-.48-1.16A1.65,1.65,0,0,0,195.67,439.18Zm-13-1.97h13a3.657,3.657,0,0,1,2.56,1.06,3.6,3.6,0,0,1,1.06,2.56v13a3.636,3.636,0,0,1-3.62,3.63h-13a3.639,3.639,0,0,1-2.56-1.06,3.6,3.6,0,0,1-1.06-2.56v-13a3.623,3.623,0,0,1,1.07-2.56A3.508,3.508,0,0,1,182.67,437.21Z" fill="#b0c1e4"/>
    <path id="Path_164" data-name="Path 164" d="M186.5,448.43l10.89-10.15a2.1,2.1,0,0,1,2.86,3.08L187.76,453l-.03.03a2.115,2.115,0,0,1-2.97-.2l-6.02-6.89a2.1,2.1,0,1,1,3.17-2.77Z" fill="#eb5e2c" fill-rule="evenodd"/>
    <path id="Path_165" data-name="Path 165" d="M210.83,438.56h17.48a1.27,1.27,0,1,1,0,2.54H210.83a1.27,1.27,0,1,1,0-2.54Z" fill="#b0c1e4" fill-rule="evenodd"/>
    <path id="Path_166" data-name="Path 166" d="M210.83,445.32h31.15a1.27,1.27,0,1,1,0,2.54H210.83a1.27,1.27,0,1,1,0-2.54Z" fill="#b0c1e4" fill-rule="evenodd"/>
    <path id="Path_167" data-name="Path 167" d="M248.74,445.32h10.72a1.27,1.27,0,1,1,0,2.54H248.74a1.27,1.27,0,1,1,0-2.54Z" fill="#b0c1e4" fill-rule="evenodd"/>
    <path id="Path_168" data-name="Path 168" d="M210.83,451.83h7.77a1.27,1.27,0,0,1,0,2.54h-7.77a1.27,1.27,0,1,1,0-2.54Z" fill="#b0c1e4" fill-rule="evenodd"/>
    <path id="Path_169" data-name="Path 169" d="M223.92,451.83h27.42a1.27,1.27,0,1,1,0,2.54H223.92a1.27,1.27,0,1,1,0-2.54Z" fill="#b0c1e4" fill-rule="evenodd"/>
    <path id="Path_170" data-name="Path 170" d="M256.65,451.83h12.44a1.27,1.27,0,0,1,0,2.54H256.65a1.27,1.27,0,0,1,0-2.54Z" fill="#b0c1e4" fill-rule="evenodd"/>
    <path id="Path_171" data-name="Path 171" d="M186.5,479.63l10.89-10.15a2.1,2.1,0,1,1,2.86,3.08L187.76,484.2l-.03.03a2.115,2.115,0,0,1-2.97-.2l-6.02-6.89a2.1,2.1,0,0,1,3.17-2.77Z" fill="#eb5e2c" fill-rule="evenodd"/>
    <path id="Path_172" data-name="Path 172" d="M210.83,469.76h17.48a1.27,1.27,0,1,1,0,2.54H210.83a1.27,1.27,0,1,1,0-2.54Z" fill="#b0c1e4" fill-rule="evenodd"/>
    <path id="Path_173" data-name="Path 173" d="M210.83,476.52h31.15a1.27,1.27,0,1,1,0,2.54H210.83a1.27,1.27,0,1,1,0-2.54Z" fill="#b0c1e4" fill-rule="evenodd"/>
    <path id="Path_174" data-name="Path 174" d="M248.74,476.52h10.72a1.27,1.27,0,1,1,0,2.54H248.74a1.27,1.27,0,1,1,0-2.54Z" fill="#b0c1e4" fill-rule="evenodd"/>
    <path id="Path_175" data-name="Path 175" d="M210.83,483.02h7.77a1.27,1.27,0,0,1,0,2.54h-7.77a1.27,1.27,0,1,1,0-2.54Z" fill="#b0c1e4" fill-rule="evenodd"/>
    <path id="Path_176" data-name="Path 176" d="M223.92,483.02h27.42a1.27,1.27,0,1,1,0,2.54H223.92a1.27,1.27,0,1,1,0-2.54Z" fill="#b0c1e4" fill-rule="evenodd"/>
    <path id="Path_177" data-name="Path 177" d="M256.65,483.02h12.44a1.27,1.27,0,0,1,0,2.54H256.65a1.27,1.27,0,0,1,0-2.54Z" fill="#b0c1e4" fill-rule="evenodd"/>
    <path id="Path_178" data-name="Path 178" d="M180.06,382.04h17.48a1.27,1.27,0,1,1,0,2.54H180.06a1.27,1.27,0,1,1,0-2.54Z" fill="#b0c1e4" fill-rule="evenodd"/>
    <path id="Path_179" data-name="Path 179" d="M180.06,388.8h31.15a1.27,1.27,0,0,1,0,2.54H180.06a1.27,1.27,0,1,1,0-2.54Z" fill="#b0c1e4" fill-rule="evenodd"/>
    <path id="Path_180" data-name="Path 180" d="M180.06,395.3h7.77a1.27,1.27,0,1,1,0,2.54h-7.77a1.27,1.27,0,1,1,0-2.54Z" fill="#b0c1e4" fill-rule="evenodd"/>
    <path id="Path_181" data-name="Path 181" d="M193.14,395.3h27.42a1.27,1.27,0,1,1,0,2.54H193.14a1.27,1.27,0,1,1,0-2.54Z" fill="#b0c1e4" fill-rule="evenodd"/>
    <path id="Path_182" data-name="Path 182" d="M180.06,401.81h31.15a1.27,1.27,0,0,1,0,2.54H180.06a1.27,1.27,0,1,1,0-2.54Z" fill="#b0c1e4" fill-rule="evenodd"/>
    <path id="Path_183" data-name="Path 183" d="M217.97,401.81h10.72a1.27,1.27,0,1,1,0,2.54H217.97a1.27,1.27,0,1,1,0-2.54Z" fill="#b0c1e4" fill-rule="evenodd"/>
    <path id="Path_184" data-name="Path 184" d="M180.06,408.8h42a1.27,1.27,0,1,1,0,2.54h-42a1.27,1.27,0,1,1,0-2.54Z" fill="#b0c1e4" fill-rule="evenodd"/>
    <path id="Path_185" data-name="Path 185" d="M180.06,415.8h17.97a1.27,1.27,0,1,1,0,2.54H180.06a1.27,1.27,0,1,1,0-2.54Z" fill="#b0c1e4" fill-rule="evenodd"/>
    <path id="Path_186" data-name="Path 186" d="M309.49,456.03h19.33a.354.354,0,0,1,.35.35v6.03a.354.354,0,0,1-.35.35H309.49a.354.354,0,0,1-.35-.35v-6.03A.342.342,0,0,1,309.49,456.03Zm0-3.03h19.33a3.4,3.4,0,0,1,3.39,3.39v6.03a3.4,3.4,0,0,1-3.39,3.39H309.49a3.4,3.4,0,0,1-3.39-3.39v-6.03A3.393,3.393,0,0,1,309.49,453Z" fill="#98acd9" fill-rule="evenodd"/>
    <path id="Path_187" data-name="Path 187" d="M281.85,461.21h74.94a3.4,3.4,0,0,1,3.39,3.39v50.86a3.4,3.4,0,0,1-3.39,3.39H281.85a3.4,3.4,0,0,1-3.39-3.39V464.6A3.4,3.4,0,0,1,281.85,461.21Z" fill="#98acd9" fill-rule="evenodd"/>
    <path id="Path_188" data-name="Path 188" d="M282.07,461.21h74.94a3.4,3.4,0,0,1,3.39,3.39v44.76a3.4,3.4,0,0,1-3.39,3.39H282.07a3.4,3.4,0,0,1-3.39-3.39V464.6A3.393,3.393,0,0,1,282.07,461.21Z" fill="#b0c1e4" fill-rule="evenodd"/>
    <path id="Path_189" data-name="Path 189" d="M282.49,461.33h74.52v28.14a2.527,2.527,0,0,1-2.5,2.53h-69.6a2.439,2.439,0,0,1-2.42-2.44Z" fill="#98acd9" fill-rule="evenodd"/>
    <path id="Path_190" data-name="Path 190" d="M282.07,460.49h74.94v28.04a2.529,2.529,0,0,1-2.52,2.52H284.5a2.433,2.433,0,0,1-2.43-2.43Z" fill="#d1def3" fill-rule="evenodd"/>
    <path id="Path_191" data-name="Path 191" d="M289.85,462.86h59.38a2.2,2.2,0,0,1,0,4.4H289.85a2.2,2.2,0,0,1,0-4.4Z" fill="#eaf0fa" fill-rule="evenodd"/>
    <path id="Path_192" data-name="Path 192" d="M360.4,507.94H278.68v1.32H360.4Z" fill="#98acd9"/>
    <path id="Path_193" data-name="Path 193" d="M310.58,452.55h17.15a.337.337,0,0,1,.34.34v3.21a.337.337,0,0,1-.34.34H310.58a.337.337,0,0,1-.34-.34v-3.21A.337.337,0,0,1,310.58,452.55Z" fill="#98acd9" fill-rule="evenodd"/>
    <path id="Path_194" data-name="Path 194" d="M311.14,453h15.91a.29.29,0,1,1,0,.58H311.14a.29.29,0,1,1,0-.58Z" fill="#e7effa" fill-rule="evenodd"/>
    <path id="Path_195" data-name="Path 195" d="M296.52,459.43h2.97a2.108,2.108,0,0,1,2.12,2.09v55.24a2.108,2.108,0,0,1-2.12,2.09h-2.97a2.108,2.108,0,0,1-2.12-2.09V461.52A2.121,2.121,0,0,1,296.52,459.43Z" fill="#98acd9" fill-rule="evenodd"/>
    <path id="Path_196" data-name="Path 196" d="M294.01,497.57h.4v1.69h-.4a.38.38,0,0,0-.38.38v7.73a.38.38,0,0,0,.38.38h8a.38.38,0,0,0,.38-.38v-7.73a.38.38,0,0,0-.38-.38h-.4v-1.69h.4a2.074,2.074,0,0,1,2.07,2.07v7.73a2.074,2.074,0,0,1-2.07,2.07h-8a2.074,2.074,0,0,1-2.07-2.07v-7.73A2.074,2.074,0,0,1,294.01,497.57Z" fill="#fff"/>
    <path id="Path_197" data-name="Path 197" d="M339.58,459.43h2.97a2.108,2.108,0,0,1,2.12,2.09v55.24a2.108,2.108,0,0,1-2.12,2.09h-2.97a2.115,2.115,0,0,1-2.12-2.09V461.52A2.115,2.115,0,0,1,339.58,459.43Z" fill="#98acd9" fill-rule="evenodd"/>
    <path id="Path_198" data-name="Path 198" d="M337.07,497.57h.4v1.69h-.4a.38.38,0,0,0-.38.38v7.73a.38.38,0,0,0,.38.38h8a.38.38,0,0,0,.38-.38v-7.73a.38.38,0,0,0-.38-.38h-.4v-1.69h.4a2.074,2.074,0,0,1,2.07,2.07v7.73a2.074,2.074,0,0,1-2.07,2.07h-8a2.074,2.074,0,0,1-2.07-2.07v-7.73A2.074,2.074,0,0,1,337.07,497.57Z" fill="#fff"/>
    <path id="Path_199" data-name="Path 199" d="M308.38,406.49v29.87h50.21V406.49l-25.64-21.96Z" fill="#f49817" fill-rule="evenodd"/>
    <path id="Path_200" data-name="Path 200" d="M351.34,391.83H316.28v40.85h35.06Z" fill="#fff"/>
    <path id="Path_201" data-name="Path 201" d="M358.59,406.49l-24.73,22.02-25.48-22.02v29.87h50.21Z" fill="#fab53f" fill-rule="evenodd"/>
    <path id="Path_202" data-name="Path 202" d="M358.59,436.36l-22.8-15.98a4.015,4.015,0,0,0-5.05.03l-22.36,15.95Z" fill="#fbc762" fill-rule="evenodd"/>
    <path id="Path_203" data-name="Path 203" d="M332.42,403.07h-9.84a1.06,1.06,0,0,0,0,2.12h9.84a1.06,1.06,0,1,0,0-2.12Z" fill="#b0c1e4" fill-rule="evenodd"/>
    <path id="Path_204" data-name="Path 204" d="M345.11,407.92H322.58a1.06,1.06,0,0,0,0,2.12h22.53a1.06,1.06,0,1,0,0-2.12Z" fill="#b0c1e4" fill-rule="evenodd"/>
    <path id="Path_205" data-name="Path 205" d="M345.11,412.77H322.58a1.06,1.06,0,0,0,0,2.12h22.53a1.06,1.06,0,1,0,0-2.12Z" fill="#b0c1e4" fill-rule="evenodd"/>
    <path id="Path_206" data-name="Path 206" d="M345.97,396.24h-9.75v9.75h9.75Zm-5.97,4.9a2.287,2.287,0,0,0-1.34.55,13.9,13.9,0,0,0-.75,3.62H336.9v-8.4h8.4v8.4h-1.04a12.932,12.932,0,0,0-.86-3.65,2.7,2.7,0,0,0-1.15-.51v-.01a2.545,2.545,0,0,0-.36-.08v-.01c-.07-.01-.14-.03-.21-.04a.127.127,0,0,0-.01-.06v-.06a1.4,1.4,0,0,0,.25-.02c.6-.17.61-1.03.54-1.66a.814.814,0,0,0,.23-1.21c-.16-.16-.21-.02-.49,0-.23.01-.54-.23-.74-.28-.24-.06-.99-.1-1.16.51-.49.16-.4,1.2-.11,1.25-.19.31.2.64.34.74l-.02-.01a.875.875,0,0,1,.08.48c0,.11,0,.21-.01.32-.08.01-.15.03-.22.04v.01A3.429,3.429,0,0,0,340,401.14Z" fill="#b0c1e4"/>
    <path id="Path_207" data-name="Path 207" d="M327.6,398.36h-5.02a1.06,1.06,0,0,0,0,2.12h5.02a1.06,1.06,0,0,0,0-2.12Z" fill="#b0c1e4" fill-rule="evenodd"/>
    <path id="Path_208" data-name="Path 208" d="M250.81,391.5a4.255,4.255,0,0,1,2.63-4.24c3.89-1.88,6.73.16,7.9.73.81.39,1.32.71,2.12,1.07,2,.89,1.67,4.96-.15,6.07-.18.11-.19-1.81-.38-1.72a1.452,1.452,0,0,1-.47.16c-2.73.73-5.25-1.38-7.05,0-.89.68-1.08,1.9-.69,3.94.12.6.34,1.07-.49.44-.38-.29-1.02-.72-1.3-.57a1.124,1.124,0,0,0-.19,1.66c.16.17.48.44.48.44C249.45,397.89,249.06,392.33,250.81,391.5Z" fill="#1f3a73" fill-rule="evenodd"/>
  </g>
</svg>
